<?xml version="1.0" encoding="utf-8"?>
<!-- Generator: Adobe Illustrator 24.0.2, SVG Export Plug-In . SVG Version: 6.00 Build 0)  -->
<svg version="1.1" id="Layer_1" xmlns="http://www.w3.org/2000/svg" xmlns:xlink="http://www.w3.org/1999/xlink" x="0px" y="0px"
	 viewBox="0 0 1649.8 865.6" style="enable-background:new 0 0 1649.8 865.6;" xml:space="preserve">
<style type="text/css">
	.st0{display:none;}
	.st1{display:inline;}
	.st2{fill:#FFFFFF;}
	.st3{fill:none;stroke:#4771E3;stroke-width:1.1974;stroke-miterlimit:10;}
	.st4{clip-path:url(#SVGID_2_);fill:#CDEAA1;stroke:#B8D96A;stroke-width:1.1974;stroke-miterlimit:10;}
	.st5{fill:none;stroke:#4771E3;stroke-width:1.5;stroke-miterlimit:10;}
	.st6{fill:#DDEFFE;}
	.st7{fill:#98CDFB;}
	.st8{fill:none;stroke:#4771E3;stroke-width:0.5987;stroke-miterlimit:10;}
	.st9{fill:none;stroke:#4771E3;stroke-width:1.3911;stroke-miterlimit:10;}
	.st10{fill:none;stroke:#4771E3;stroke-width:1.1411;stroke-miterlimit:10;}
	.st11{fill:none;stroke:#4771E3;stroke-miterlimit:10;}
	.st12{clip-path:url(#SVGID_4_);fill:#4172E6;}
	.st13{clip-path:url(#SVGID_6_);}
	.st14{clip-path:url(#SVGID_11_);}
	.st15{clip-path:url(#SVGID_12_);fill:#FFFFFF;}
	.st16{fill:#F5FBFF;}
	.st17{fill:none;stroke:#5067BD;stroke-width:1.5;stroke-miterlimit:10;}
	.st18{fill:#FFFFFF;stroke:#5A9AD3;stroke-width:1.5;stroke-miterlimit:10;}
	.st19{clip-path:url(#SVGID_14_);fill:#4FA6F8;}
	.st20{fill:none;stroke:#5A9AD3;stroke-width:0.4483;stroke-miterlimit:10;}
	.st21{clip-path:url(#SVGID_16_);fill:#2372E8;}
	.st22{fill:none;stroke:#5067BD;stroke-width:0.75;stroke-miterlimit:10;}
	.st23{fill:#CDEAA1;}
	.st24{fill:#E4CA48;}
	.st25{fill:#4FA6F8;}
	.st26{fill:none;stroke:#5067BD;stroke-width:1.0636;stroke-miterlimit:10;}
	.st27{fill:#FCF9EA;}
	.st28{fill:none;stroke:#4267C3;stroke-width:0.4948;stroke-linecap:round;stroke-linejoin:round;stroke-miterlimit:10;}
	.st29{fill:none;stroke:#4267C3;stroke-width:1.5;stroke-linecap:round;stroke-linejoin:round;stroke-miterlimit:10;}
	.st30{fill:#F1F7FF;}
	.st31{fill:#DBE7F9;}
	.st32{clip-path:url(#SVGID_18_);}
	.st33{clip-path:url(#SVGID_20_);}
	.st34{clip-path:url(#SVGID_22_);}
	.st35{fill:#936E10;}
	.st36{clip-path:url(#SVGID_24_);fill:#98CDFB;}
	.st37{fill:#FBE0E1;}
	.st38{fill:#ABDB61;}
	.st39{fill:none;stroke:#85C52E;stroke-width:0.4948;stroke-miterlimit:10;}
	.st40{fill:#98C7ED;}
	.st41{fill:#FFD138;}
	.st42{fill:#F25B36;}
	.st43{fill:#F7BE00;}
	.st44{fill:#DD3809;}
	.st45{fill:#F2A6A8;}
	.st46{fill:#EBF7D4;}
	.st47{fill:none;stroke:#4267C3;stroke-width:0.5;stroke-linecap:round;stroke-linejoin:round;stroke-miterlimit:10;}
	.st48{fill:#43310A;}
	.st49{fill:none;stroke:#4267C3;stroke-linecap:round;stroke-linejoin:round;stroke-miterlimit:10;}
	.st50{fill:#143261;}
	.st51{fill:#EBD9DA;}
	.st52{fill:#DEA3A5;}
	.st53{fill:#E0EDFC;}
	.st54{fill:#F7E392;}
	.st55{fill:#F2CF49;}
	.st56{fill:#CB980B;}
	.st57{fill:#2F3740;}
	.st58{fill:#B8D96A;}
	.st59{fill:#F2DEDF;}
	.st60{clip-path:url(#SVGID_26_);fill:#98CDFB;}
	.st61{fill:none;}
	.st62{fill:#70A3F4;}
	.st63{fill:none;stroke:#5A9AD3;stroke-width:0.5384;stroke-miterlimit:10;}
	.st64{fill:none;stroke:#85C52E;stroke-width:0.8584;stroke-miterlimit:10;}
	.st65{fill:none;stroke:#5A9AD3;stroke-width:0.4948;stroke-miterlimit:10;}
	.st66{fill:none;stroke:#4267C6;stroke-width:1.5;stroke-miterlimit:10;}
	.st67{fill:none;stroke:#4267C6;stroke-width:1.5;stroke-linecap:round;stroke-linejoin:round;stroke-miterlimit:10;}
	.st68{clip-path:url(#SVGID_28_);fill:#CDEAA1;}
	.st69{fill:#C9E69D;}
</style>
<g id="page_x5F_03" class="st0">
	<g id="Layer_17" class="st1">
	</g>
</g>
<g id="page_x5F_02" class="st0">
</g>
<g id="page_x5F_01" class="st0">
</g>
<g id="hero">
	<g id="Layer_25">
		<g>
			<path class="st2" d="M1557,370.4h-41.1c-1.1,0-1.9-0.9-1.9-1.9l0,0c0-1.1,0.9-1.9,1.9-1.9h41.1c1.1,0,1.9,0.9,1.9,1.9l0,0
				C1559,369.5,1558.1,370.4,1557,370.4z"/>
			<path class="st2" d="M1528.6,376.9h-12.4c-1.1,0-1.9-0.9-1.9-1.9l0,0c0-1.1,0.9-1.9,1.9-1.9h12.4c1.1,0,1.9,0.9,1.9,1.9l0,0
				C1530.5,376,1529.7,376.9,1528.6,376.9z"/>
			<path class="st3" d="M1556.1,369.7h-40.3c-1.1,0-2-0.9-2-2l0,0c0-1.1,0.9-2,2-2h40.3c1.1,0,2,0.9,2,2l0,0
				C1558.1,368.8,1557.2,369.7,1556.1,369.7z"/>
			<path class="st3" d="M1527.5,376.4h-11.7c-1.1,0-2-0.9-2-2l0,0c0-1.1,0.9-2,2-2h11.7c1.1,0,2,0.9,2,2l0,0
				C1529.5,375.5,1528.6,376.4,1527.5,376.4z"/>
			<path class="st2" d="M1621.4,228c-6.9,0-13.2,4.3-17.8,11.3c-2.5,3.7-6.5,6-11,6h-1.6c-7.2,0-13-5.8-13-13V100.4
				c0-9-7.3-16.3-16.3-16.3h-61.4c-7.2,0-13-5.8-13-13v-1c0-4.5,2.3-8.5,6-11c7-4.6,11.3-10.9,11.3-17.8c0-14.1-18-25.6-40.2-25.6
				s-40.2,11.5-40.2,25.6c0,6.9,4.3,13.2,11.3,17.8c3.7,2.5,6,6.5,6,11v1c0,7.2-5.8,13-13,13h-65.1c-9,0-16.3,7.3-16.3,16.3v290.9
				c0,9,7.3,16.3,16.3,16.3h198.3c9,0,16.3-7.3,16.3-16.3V304c0-7.2,5.8-13,13-13h1.6c4.5,0,8.5,2.3,11,6c4.6,7,10.9,11.3,17.8,11.3
				c14.1,0,25.6-18,25.6-40.2C1647,246,1635.6,228,1621.4,228z"/>
			<g>
				<g>
					<g>
						<defs>
							<path id="SVGID_1_" d="M1621.4,228c-6.9,0-13.2,4.3-17.8,11.3c-2.5,3.7-6.5,6-11,6h-1.6c-7.2,0-13-5.8-13-13V108.4
								c0-9-7.3-24.2-16.3-24.2h-61.4c-7.2,0-13-5.8-13-13v-1c0-4.5,2.3-8.5,6-11c7-4.6,11.3-10.9,11.3-17.8
								c0-14.1-18-25.6-40.2-25.6s-40.2,11.5-40.2,25.6c0,6.9,4.3,13.2,11.3,17.8c3.7,2.5,6,6.5,6,11v1c0,7.2-5.8,13-13,13h-65.1
								c-9,0-16.3,15.2-16.3,24.2v283c0,9,7.3,16.3,16.3,16.3h198.3c9,0,16.3-22.7,16.3-31.7v-71.9c0-7.2,5.8-13,13-13h1.6
								c4.5,0,8.5,2.3,11,6c4.6,7,10.9,11.3,17.8,11.3c14.1,0,25.6-18,25.6-40.2C1647,246,1635.6,228,1621.4,228z"/>
						</defs>
						<clipPath id="SVGID_2_">
							<use xlink:href="#SVGID_1_"  style="overflow:visible;"/>
						</clipPath>
						<path class="st4" d="M1652,321.3h-136.4c-3.7,0-6.7-3-6.7-6.7v-56.7c0-3.7,3-6.7,6.7-6.7h142.2L1652,321.3z"/>
					</g>
				</g>
			</g>
			<path class="st5" d="M1621.4,228c-6.9,0-13.2,4.3-17.8,11.3c-2.5,3.7-6.5,6-11,6h-1.6c-7.2,0-13-5.8-13-13V100.4
				c0-9-7.3-16.3-16.3-16.3h-61.4c-7.2,0-13-5.8-13-13v-1c0-4.5,2.3-8.5,6-11c7-4.6,11.3-10.9,11.3-17.8c0-14.1-18-25.6-40.2-25.6
				s-40.2,11.5-40.2,25.6c0,6.9,4.3,13.2,11.3,17.8c3.7,2.5,6,6.5,6,11v1c0,7.2-5.8,13-13,13h-65.1c-9,0-16.3,7.3-16.3,16.3v290.9
				c0,9,7.3,16.3,16.3,16.3h198.3c9,0,16.3-7.3,16.3-16.3V304c0-7.2,5.8-13,13-13h1.6c4.5,0,8.5,2.3,11,6c4.6,7,10.9,11.3,17.8,11.3
				c14.1,0,25.6-18,25.6-40.2C1647,246,1635.6,228,1621.4,228z"/>
			<path class="st2" d="M1361.7,240.3h-4.3c-0.5,0-0.9-0.4-0.9-0.9v-4.3c0-0.5,0.4-0.9,0.9-0.9h4.3c0.5,0,0.9,0.4,0.9,0.9v4.3
				C1362.6,239.8,1362.2,240.3,1361.7,240.3z"/>
			<path class="st2" d="M1369.5,240.3h-4.3c-0.5,0-0.9-0.4-0.9-0.9v-4.3c0-0.5,0.4-0.9,0.9-0.9h4.3c0.5,0,0.9,0.4,0.9,0.9v4.3
				C1370.5,239.8,1370.1,240.3,1369.5,240.3z"/>
			<g>
				<path class="st2" d="M1362.1,261.7h-4.3c-0.5,0-0.9-0.4-0.9-0.9v-4.3c0-0.5,0.4-0.9,0.9-0.9h4.3c0.5,0,0.9,0.4,0.9,0.9v4.3
					C1363,261.2,1362.6,261.7,1362.1,261.7z"/>
				<path class="st2" d="M1370,261.7h-4.3c-0.5,0-0.9-0.4-0.9-0.9v-4.3c0-0.5,0.4-0.9,0.9-0.9h4.3c0.5,0,0.9,0.4,0.9,0.9v4.3
					C1370.9,261.2,1370.5,261.7,1370,261.7z"/>
			</g>
			<g>
				<path class="st2" d="M1520,263.1h-4.3c-0.5,0-0.9-0.4-0.9-0.9v-4.3c0-0.5,0.4-0.9,0.9-0.9h4.3c0.5,0,0.9,0.4,0.9,0.9v4.3
					C1521,262.6,1520.6,263.1,1520,263.1z"/>
				<path class="st2" d="M1527.9,263.1h-4.3c-0.5,0-0.9-0.4-0.9-0.9v-4.3c0-0.5,0.4-0.9,0.9-0.9h4.3c0.5,0,0.9,0.4,0.9,0.9v4.3
					C1528.8,262.6,1528.4,263.1,1527.9,263.1z"/>
			</g>
			<path class="st2" d="M1416.6,271.2h-58.1c-1.1,0-1.9-0.9-1.9-1.9l0,0c0-1.1,0.9-1.9,1.9-1.9h58.1c1.1,0,1.9,0.9,1.9,1.9l0,0
				C1418.5,270.3,1417.6,271.2,1416.6,271.2z"/>
			<g>
				<path class="st2" d="M1519.8,360.5h-4.3c-0.5,0-0.9-0.4-0.9-0.9v-4.3c0-0.5,0.4-0.9,0.9-0.9h4.3c0.5,0,0.9,0.4,0.9,0.9v4.3
					C1520.8,360.1,1520.3,360.5,1519.8,360.5z"/>
				<path class="st2" d="M1527.7,360.5h-4.3c-0.5,0-0.9-0.4-0.9-0.9v-4.3c0-0.5,0.4-0.9,0.9-0.9h4.3c0.5,0,0.9,0.4,0.9,0.9v4.3
					C1528.6,360.1,1528.2,360.5,1527.7,360.5z"/>
			</g>
			<path class="st2" d="M1647.4,272.4h-129.2c-1.3,0-2.4-1.1-2.4-2.4l0,0c0-1.3,1.1-2.4,2.4-2.4h129.2c1.3,0,2.4,1.1,2.4,2.4l0,0
				C1649.8,271.3,1648.7,272.4,1647.4,272.4z"/>
			<path class="st2" d="M1585.2,279.8h-67c-1.3,0-2.4-1.1-2.4-2.4l0,0c0-1.3,1.1-2.4,2.4-2.4h67c1.3,0,2.4,1.1,2.4,2.4l0,0
				C1587.6,278.7,1586.5,279.8,1585.2,279.8z"/>
			<rect x="1350.9" y="157.8" class="st6" width="230.2" height="51.2"/>
			<path class="st7" d="M1422.1,247.7h-65.9c-2.1,0-3.7-1.7-3.7-3.7v-11.1c0-2.1,1.7-3.7,3.7-3.7h65.9c2.1,0,3.7,1.7,3.7,3.7V244
				C1425.8,246,1424.1,247.7,1422.1,247.7z"/>
			<path class="st6" d="M1422.6,306h-65.9c-2,0-3.6-1.6-3.6-3.6v-46.7c0-2,1.6-3.6,3.6-3.6h65.9c2,0,3.6,1.6,3.6,3.6v46.7
				C1426.2,304.4,1424.6,306,1422.6,306z"/>
			<path class="st6" d="M1572.6,389.3h-58.8c-2,0-3.6-1.6-3.6-3.6v-31.3c0-2,1.6-3.6,3.6-3.6h58.8c2,0,3.6,1.6,3.6,3.6v31.3
				C1576.2,387.7,1574.6,389.3,1572.6,389.3z"/>
			<path class="st7" d="M1380,169.1h18.8c2.4,0,4.4,1.9,4.4,4.4v18.8c0,2.4-1.9,4.4-4.4,4.4H1380c-2.4,0-4.4-1.9-4.4-4.4v-18.8
				C1375.6,171.1,1377.5,169.1,1380,169.1z"/>
			<path class="st7" d="M1458.9,169.1h18.8c2.4,0,4.4,1.9,4.4,4.4v18.8c0,2.4-1.9,4.4-4.4,4.4h-18.8c-2.4,0-4.4-1.9-4.4-4.4v-18.8
				C1454.5,171.1,1456.5,169.1,1458.9,169.1z"/>
			<path class="st7" d="M1534.3,169.1h18.8c2.4,0,4.4,1.9,4.4,4.4v18.8c0,2.4-1.9,4.4-4.4,4.4h-18.8c-2.4,0-4.4-1.9-4.4-4.4v-18.8
				C1530,171.1,1531.9,169.1,1534.3,169.1z"/>
			<line class="st8" x1="1428.1" y1="157.8" x2="1428.1" y2="407.7"/>
			<line class="st8" x1="1503.3" y1="157.8" x2="1503.3" y2="407.6"/>
			<line class="st9" x1="1347.2" y1="157.8" x2="1578.1" y2="157.8"/>
			<line class="st9" x1="1346.8" y1="207.9" x2="1577.9" y2="207.9"/>
			<path class="st10" d="M1550.3,146.5H1530c-5.5,0-10-4.5-10-10v-20.3c0-5.5,4.5-10,10-10h20.3c5.5,0,10,4.5,10,10v20.3
				C1560.4,142,1555.9,146.5,1550.3,146.5z"/>
			<path class="st11" d="M1378.4,168.3h18.8c2.4,0,4.4,1.9,4.4,4.4v18.8c0,2.4-1.9,4.4-4.4,4.4h-18.8c-2.4,0-4.4-1.9-4.4-4.4v-18.8
				C1374.1,170.3,1376,168.3,1378.4,168.3z"/>
			<path class="st11" d="M1457.4,168.3h18.8c2.4,0,4.4,1.9,4.4,4.4v18.8c0,2.4-1.9,4.4-4.4,4.4h-18.8c-2.4,0-4.4-1.9-4.4-4.4v-18.8
				C1453,170.3,1455,168.3,1457.4,168.3z"/>
			<path class="st11" d="M1532.8,168.3h18.8c2.4,0,4.4,1.9,4.4,4.4v18.8c0,2.4-1.9,4.4-4.4,4.4h-18.8c-2.4,0-4.4-1.9-4.4-4.4v-18.8
				C1528.4,170.3,1530.4,168.3,1532.8,168.3z"/>
			<path class="st11" d="M1420.4,305.4h-65.9c-2,0-3.6-1.6-3.6-3.6v-46.7c0-2,1.6-3.6,3.6-3.6h65.9c2,0,3.6,1.6,3.6,3.6v46.7
				C1424,303.8,1422.4,305.4,1420.4,305.4z"/>
			<path class="st11" d="M1578.1,321.6l-62.5-0.3c-3.7,0-6.7-3-6.7-6.7v-56.7c0-3.7,3-6.7,6.7-6.7h129"/>
			<path class="st11" d="M1361.8,261.7h-4.9c-0.4,0-0.6-0.3-0.6-0.6v-4.9c0-0.4,0.3-0.6,0.6-0.6h4.9c0.4,0,0.6,0.3,0.6,0.6v4.9
				C1362.4,261.4,1362.1,261.7,1361.8,261.7z"/>
			<path class="st11" d="M1369.8,261.7h-4.9c-0.4,0-0.6-0.3-0.6-0.6v-4.9c0-0.4,0.3-0.6,0.6-0.6h4.9c0.4,0,0.6,0.3,0.6,0.6v4.9
				C1370.4,261.4,1370.2,261.7,1369.8,261.7z"/>
			<path class="st11" d="M1420.6,247h-65.9c-2.1,0-3.7-1.7-3.7-3.7v-11.1c0-2.1,1.7-3.7,3.7-3.7h65.9c2.1,0,3.7,1.7,3.7,3.7v11.1
				C1424.3,245.3,1422.6,247,1420.6,247z"/>
			<path class="st11" d="M1361.2,239.9h-4.9c-0.4,0-0.6-0.3-0.6-0.6v-4.9c0-0.4,0.3-0.6,0.6-0.6h4.9c0.4,0,0.6,0.3,0.6,0.6v4.9
				C1361.9,239.6,1361.6,239.9,1361.2,239.9z"/>
			<path class="st11" d="M1369.3,239.9h-4.9c-0.4,0-0.6-0.3-0.6-0.6v-4.9c0-0.4,0.3-0.6,0.6-0.6h4.9c0.4,0,0.6,0.3,0.6,0.6v4.9
				C1369.9,239.6,1369.6,239.9,1369.3,239.9z"/>
			<path class="st11" d="M1415.5,270.6h-57.4c-1.1,0-2-0.9-2-2l0,0c0-1.1,0.9-2,2-2h57.4c1.1,0,2,0.9,2,2l0,0
				C1417.5,269.8,1416.6,270.6,1415.5,270.6z"/>
			<path class="st11" d="M1571.3,388.8h-59.1c-2,0-3.6-1.6-3.6-3.6v-31.3c0-2,1.6-3.6,3.6-3.6h59.1c2,0,3.6,1.6,3.6,3.6v31.3
				C1574.8,387.2,1573.2,388.8,1571.3,388.8z"/>
			<path class="st11" d="M1519.5,360.5h-4.9c-0.4,0-0.6-0.3-0.6-0.6V355c0-0.4,0.3-0.6,0.6-0.6h4.9c0.4,0,0.6,0.3,0.6,0.6v4.9
				C1520.1,360.2,1519.8,360.5,1519.5,360.5z"/>
			<path class="st11" d="M1527.5,360.5h-4.9c-0.4,0-0.6-0.3-0.6-0.6V355c0-0.4,0.3-0.6,0.6-0.6h4.9c0.4,0,0.6,0.3,0.6,0.6v4.9
				C1528.2,360.2,1527.9,360.5,1527.5,360.5z"/>
			<g>
				<path class="st2" d="M1442.4,327.7h-4.3c-0.5,0-0.9-0.4-0.9-0.9v-4.3c0-0.5,0.4-0.9,0.9-0.9h4.3c0.5,0,0.9,0.4,0.9,0.9v4.3
					C1443.3,327.3,1442.9,327.7,1442.4,327.7z"/>
				<path class="st2" d="M1450.2,327.7h-4.3c-0.5,0-0.9-0.4-0.9-0.9v-4.3c0-0.5,0.4-0.9,0.9-0.9h4.3c0.5,0,0.9,0.4,0.9,0.9v4.3
					C1451.2,327.3,1450.7,327.7,1450.2,327.7z"/>
			</g>
			<path class="st2" d="M1479.6,337.6h-41.1c-1.1,0-1.9-0.9-1.9-1.9l0,0c0-1.1,0.9-1.9,1.9-1.9h41.1c1.1,0,1.9,0.9,1.9,1.9l0,0
				C1481.5,336.7,1480.6,337.6,1479.6,337.6z"/>
			<path class="st2" d="M1451.1,344.1h-12.4c-1.1,0-1.9-0.9-1.9-1.9l0,0c0-1.1,0.9-1.9,1.9-1.9h12.4c1.1,0,1.9,0.9,1.9,1.9l0,0
				C1453.1,343.3,1452.2,344.1,1451.1,344.1z"/>
			<path class="st6" d="M1495.2,356.5h-58.8c-2,0-3.6-1.6-3.6-3.6v-31.3c0-2,1.6-3.6,3.6-3.6h58.8c2,0,3.6,1.6,3.6,3.6V353
				C1498.7,355,1497.1,356.5,1495.2,356.5z"/>
			<path class="st11" d="M1493.8,356.1h-59.1c-2,0-3.6-1.6-3.6-3.6v-31.3c0-2,1.6-3.6,3.6-3.6h59.1c2,0,3.6,1.6,3.6,3.6v31.3
				C1497.4,354.5,1495.8,356.1,1493.8,356.1z"/>
			<path class="st11" d="M1442,327.7h-4.9c-0.4,0-0.6-0.3-0.6-0.6v-4.9c0-0.4,0.3-0.6,0.6-0.6h4.9c0.4,0,0.6,0.3,0.6,0.6v4.9
				C1442.7,327.4,1442.4,327.7,1442,327.7z"/>
			<path class="st11" d="M1450.1,327.7h-4.9c-0.4,0-0.6-0.3-0.6-0.6v-4.9c0-0.4,0.3-0.6,0.6-0.6h4.9c0.4,0,0.6,0.3,0.6,0.6v4.9
				C1450.7,327.4,1450.4,327.7,1450.1,327.7z"/>
			<path class="st11" d="M1478.7,336.9h-40.3c-1.1,0-2-0.9-2-2l0,0c0-1.1,0.9-2,2-2h40.3c1.1,0,2,0.9,2,2l0,0
				C1480.6,336,1479.8,336.9,1478.7,336.9z"/>
			<path class="st11" d="M1450.1,343.6h-11.7c-1.1,0-2-0.9-2-2l0,0c0-1.1,0.9-2,2-2h11.7c1.1,0,2,0.9,2,2l0,0
				C1452.1,342.7,1451.2,343.6,1450.1,343.6z"/>
			<path class="st11" d="M1519.4,262.3h-4.9c-0.4,0-0.6-0.3-0.6-0.6v-4.9c0-0.4,0.3-0.6,0.6-0.6h4.9c0.4,0,0.6,0.3,0.6,0.6v4.9
				C1520,262.1,1519.7,262.3,1519.4,262.3z"/>
			<path class="st11" d="M1527.4,262.3h-4.9c-0.4,0-0.6-0.3-0.6-0.6v-4.9c0-0.4,0.3-0.6,0.6-0.6h4.9c0.4,0,0.6,0.3,0.6,0.6v4.9
				C1528.1,262.1,1527.8,262.3,1527.4,262.3z"/>
			<path class="st11" d="M1646.9,271.5h-131.2c-1.1,0-2-0.9-2-2l0,0c0-1.1,0.9-2,2-2H1647"/>
			<path class="st11" d="M1584.4,278.2h-68.7c-1.1,0-2-0.9-2-2l0,0c0-1.1,0.9-2,2-2h68.7c1.1,0,2,0.9,2,2l0,0
				C1586.4,277.4,1585.5,278.2,1584.4,278.2z"/>
			<g>
				<g>
					<g>
						<g>
							<defs>
								<path id="SVGID_3_" d="M1552.7,147.2h-25c-5,0-9.1-4.1-9.1-9.1v-25c0-5,4.1-9.1,9.1-9.1h25c5,0,9.1,4.1,9.1,9.1v25
									C1561.8,143.1,1557.8,147.2,1552.7,147.2z"/>
							</defs>
							<clipPath id="SVGID_4_">
								<use xlink:href="#SVGID_3_"  style="overflow:visible;"/>
							</clipPath>
							<path class="st12" d="M1563.6,151.4h-45.9c-1.2,0-2.1-0.9-2.1-2.1v-45.9c0-1.2,0.9-2.1,2.1-2.1h45.9c1.2,0,2.1,0.9,2.1,2.1
								v45.9C1565.7,150.4,1564.8,151.4,1563.6,151.4z"/>
						</g>
					</g>
					<g>
						<g>
							<defs>
								<path id="SVGID_5_" d="M1552.7,147.2h-25c-5,0-9.1-4.1-9.1-9.1v-25c0-5,4.1-9.1,9.1-9.1h25c5,0,9.1,4.1,9.1,9.1v25
									C1561.8,143.1,1557.8,147.2,1552.7,147.2z"/>
							</defs>
							<clipPath id="SVGID_6_">
								<use xlink:href="#SVGID_5_"  style="overflow:visible;"/>
							</clipPath>
							<g class="st13">
								<g>
									<g>
										<g>
											<g>
												<g>
													<defs>
														<rect id="SVGID_7_" x="1516" y="101.2" width="50.1" height="50.1"/>
													</defs>
													<clipPath id="SVGID_8_">
														<use xlink:href="#SVGID_7_"  style="overflow:visible;"/>
													</clipPath>
												</g>
												<g>
													<defs>
														<rect id="SVGID_9_" x="1516" y="101.2" width="50.1" height="50.1"/>
													</defs>
													<defs>
														<path id="SVGID_10_" d="M1539.4,133.9c-2.7,0-3.9-2.3-3.9-4.8c0-2.6,1.1-4.8,3.9-4.8s3.9,2.3,3.9,4.8
															C1543.3,131.6,1542.2,133.9,1539.4,133.9L1539.4,133.9L1539.4,133.9z M1543.5,112.9v7.8c-1.2-0.4-2.6-0.6-4-0.6
															c-5.7,0-10,3.3-10,9s4.3,9,10,9c1.5,0,3-0.6,4-1.3v1h6V113L1543.5,112.9L1543.5,112.9z"/>
													</defs>
													<clipPath id="SVGID_11_">
														<use xlink:href="#SVGID_9_"  style="overflow:visible;"/>
													</clipPath>
													<clipPath id="SVGID_12_" class="st14">
														<use xlink:href="#SVGID_10_"  style="overflow:visible;"/>
													</clipPath>
													<rect x="1529.2" y="112.7" class="st15" width="20.5" height="25.6"/>
												</g>
											</g>
										</g>
									</g>
								</g>
							</g>
						</g>
					</g>
				</g>
			</g>
			<path class="st5" d="M1621.4,228c-6.9,0-13.2,4.3-17.8,11.3c-2.5,3.7-6.5,6-11,6h-1.6c-7.2,0-13-5.8-13-13V100.4
				c0-9-7.3-16.3-16.3-16.3h-61.4c-7.2,0-13-5.8-13-13v-1c0-4.5,2.3-8.5,6-11c7-4.6,11.3-10.9,11.3-17.8c0-14.1-18-25.6-40.2-25.6
				s-40.2,11.5-40.2,25.6c0,6.9,4.3,13.2,11.3,17.8c3.7,2.5,6,6.5,6,11v1c0,7.2-5.8,13-13,13h-65.1c-9,0-16.3,7.3-16.3,16.3v290.9
				c0,9,7.3,16.3,16.3,16.3h198.3c9,0,16.3-7.3,16.3-16.3V304c0-7.2,5.8-13,13-13h1.6c4.5,0,8.5,2.3,11,6c4.6,7,10.9,11.3,17.8,11.3
				c14.1,0,25.6-18,25.6-40.2C1647,246,1635.6,228,1621.4,228z"/>
		</g>
	</g>
	<rect x="315.2" y="213" class="st16" width="231.7" height="650.8"/>
	<path class="st7" d="M410.8,63.2h54.5c11.3,0,20.5,9.2,20.5,20.5v54.4c0,11.3-9.2,20.5-20.5,20.5h-54.4c-11.3,0-20.5-9.2-20.5-20.5
		V83.7C390.3,72.4,399.5,63.2,410.8,63.2z"/>
	<path class="st17" d="M403.8,58.4h54.5c11.3,0,20.5,9.2,20.5,20.5v54.4c0,11.3-9.2,20.5-20.5,20.5h-54.4
		c-11.3,0-20.5-9.2-20.5-20.5V78.8C383.3,67.5,392.5,58.4,403.8,58.4z"/>
	<path class="st16" d="M386.6,169.3h88.9c1.8,0,3.2,1.4,3.2,3.2V192c0,1.8-1.4,3.2-3.2,3.2h-88.9c-1.8,0-3.2-1.4-3.2-3.2v-19.5
		C383.3,170.8,384.8,169.3,386.6,169.3z"/>
	<path class="st18" d="M1488.9,773h-131.4c-20.8,0-37.6-16.9-37.6-37.6V589.2c0-20.8,16.9-37.6,37.6-37.6h131.4
		c20.8,0,37.6,16.9,37.6,37.6v146.1C1526.6,756.1,1509.7,773,1488.9,773z"/>
	<g>
		<g>
			<g>
				<defs>
					<polygon id="SVGID_13_" points="1564,633.6 1285.9,633.6 1284.8,534.7 1563,534.7 					"/>
				</defs>
				<clipPath id="SVGID_14_">
					<use xlink:href="#SVGID_13_"  style="overflow:visible;"/>
				</clipPath>
				<path class="st19" d="M1488.9,773h-131.4c-20.8,0-37.6-16.9-37.6-37.6V589.2c0-20.8,16.9-37.6,37.6-37.6h131.4
					c20.8,0,37.6,16.9,37.6,37.6v146.1C1526.6,756.1,1509.7,773,1488.9,773z"/>
			</g>
		</g>
	</g>
	<path class="st20" d="M1488.9,773h-131.4c-20.8,0-37.6-16.9-37.6-37.6V589.2c0-20.8,16.9-37.6,37.6-37.6h131.4
		c20.8,0,37.6,16.9,37.6,37.6v146.1C1526.6,756.1,1509.7,773,1488.9,773z"/>
	<g>
		<g>
			<g>
				<defs>
					<path id="SVGID_15_" d="M1488.9,773h-131.4c-20.8,0-37.6-16.9-37.6-37.6V589.2c0-20.8,16.9-37.6,37.6-37.6h131.4
						c20.8,0,37.6,16.9,37.6,37.6v146.1C1526.6,756.1,1509.7,773,1488.9,773z"/>
				</defs>
				<clipPath id="SVGID_16_">
					<use xlink:href="#SVGID_15_"  style="overflow:visible;"/>
				</clipPath>
				<path class="st21" d="M1009.9,538v61.6c0,16.8,13.6,30.5,30.5,30.5h391.7c15.1,0,27.4-12.3,27.4-27.4V538H1009.9z"/>
			</g>
		</g>
		<g>
			<path id="SVGID_2311_" class="st22" d="M1488.9,773h-131.4c-20.8,0-37.6-16.9-37.6-37.6V589.2c0-20.8,16.9-37.6,37.6-37.6h131.4
				c20.8,0,37.6,16.9,37.6,37.6v146.1C1526.6,756.1,1509.7,773,1488.9,773z"/>
		</g>
	</g>
	<path class="st6" d="M541,865.4c-124-136.3-99-374.2,60.9-542.5c165.9-174.6,414-208.1,554.2-74.9s119.4,382.7-46.4,557.3
		c-21.4,22.6-44.3,42.8-68,60.6"/>
	<path class="st2" d="M545.8,648.1H295.2c-24.1,0-43.6-19.5-43.6-43.6V345.3c0-24.1,19.5-43.6,43.6-43.6h250.7
		c24.1,0,43.6,19.5,43.6,43.6v259.3C589.4,628.6,569.9,648.1,545.8,648.1z"/>
	<path class="st17" d="M540.5,648.9H289.8c-24.1,0-43.6-19.5-43.6-43.6V346.1c0-24.1,19.5-43.6,43.6-43.6h250.7
		c24.1,0,43.6,19.5,43.6,43.6v259.3C584.1,629.4,564.6,648.9,540.5,648.9z"/>
	<path class="st6" d="M503.3,463.2H405c-10.4,0-18.9-8.4-18.9-18.9v-67.5c0-10.4,8.4-18.9,18.9-18.9h98.3c10.4,0,18.9,8.4,18.9,18.9
		v67.5C522.2,454.7,513.8,463.2,503.3,463.2z"/>
	<path class="st6" d="M503.3,594.1H405c-10.4,0-18.9-8.4-18.9-18.9v-67.5c0-10.4,8.4-18.9,18.9-18.9h98.3c10.4,0,18.9,8.4,18.9,18.9
		v67.5C522.2,585.7,513.8,594.1,503.3,594.1z"/>
	<g>
		<path class="st7" d="M1255.6,785.1c0,34-18.8,74.4-40.3,74.4c-21.6,0-37.8-40.4-37.8-74.4s17.5-61.5,39.1-61.5
			C1238.1,723.6,1255.6,751.2,1255.6,785.1"/>
		<path class="st7" d="M1220.9,695.6c4.5,7.5,2,17.3-5.5,21.8s-17.3,2-21.8-5.5s-2-17.3,5.5-21.8S1216.4,688.1,1220.9,695.6"/>
		<path class="st2" d="M1239.1,744.8c0,16.2-10.7,39.2-23.8,39.2c-13.1,0-23.8-23-23.8-39.2s10.7-19.6,23.8-19.6
			C1228.4,725.3,1239.1,728.6,1239.1,744.8"/>
		<path class="st2" d="M1212.4,714c0.2,3.8-3.6,7.1-8.5,7.3s-8.9-2.7-9-6.5c-0.2-3.8,3.6-7.1,8.5-7.3
			C1208.2,707.3,1212.2,710.2,1212.4,714"/>
		<path class="st23" d="M1232.2,688.4L1232.2,688.4c-0.7-1.3-2.4-1.8-3.7-1.2l-14.7,6.7c-2,1.1-2.7,3.6-1.6,5.6s3.6,2.7,5.6,1.6
			l13.5-8.8C1232.6,691.4,1233,689.7,1232.2,688.4"/>
		<path class="st24" d="M1195.5,858.6h11.4c1.9,0,3.5,1.6,3.5,3.5s-1.6,3.5-3.5,3.5"/>
		<path class="st23" d="M1211.4,865.6H1200c-1.9,0-3.5-1.6-3.5-3.5s1.6-3.5,3.5-3.5h11.4c1.9,0,3.5,1.6,3.5,3.5
			S1213.3,865.6,1211.4,865.6"/>
		<path class="st23" d="M1231.5,865.6h-11.4c-1.9,0-3.5-1.6-3.5-3.5s1.6-3.5,3.5-3.5h11.4c1.9,0,3.5,1.6,3.5,3.5
			S1233.4,865.6,1231.5,865.6"/>
		<path class="st7" d="M1218.5,747.6c0,10.7-2,19.4-4.4,19.4c-2.5,0-4.4-8.7-4.4-19.4s2.5-21.8,4.9-21.8S1218.5,736.9,1218.5,747.6"
			/>
		<path class="st25" d="M1263.2,785.2c4,23,3.5,44.7-2.7,45.8s-4.4-19.2-8.4-42.2s-16.1-48.8-9.8-49.8
			C1248.5,737.8,1259.3,762.2,1263.2,785.2z"/>
		<path class="st17" d="M1182.2,813.2c6.5,21,18.2,35.1,31.5,35.1c12.7,0,24-12.8,30.6-32.1"/>
		<path class="st17" d="M1211.9,719.4c0.3-0.7,0.4-1.4,0.5-2.2c0.2-4.3-3.6-8-8.5-8.3s-9.2,3-9.4,7.3c0,0.6,0,1.1,0.1,1.6"/>
		<path class="st17" d="M1232.3,689L1232.3,689c-0.6-1.4-2.2-2-3.6-1.6l-15.3,5.3c-2.1,0.9-3,3.3-2.1,5.4c0.9,2.1,3.3,3,5.4,2.1
			l14.3-7.5C1232.4,692,1232.9,690.4,1232.3,689z"/>
		<path class="st17" d="M1214.3,692.9c-1.2-1-2.6-1.8-4.1-2.4c-8.2-3.2-17.4,0.8-20.6,9c-3.6,9.1,1.2,17.5,9,20.6
			c8.2,3.2,17.4-0.8,20.6-9c1.6-4,1.4-8.2-0.1-11.9"/>
		<path class="st26" d="M1201.7,855v-4.6h6.3v4.6c0,2.3,1.9,4.2,4.2,4.2h0.3c1.7,0,3.2,1.4,3.2,3.2s-1.4,3.2-3.2,3.2h-15.3
			c-1.7,0-3.2-1.4-3.2-3.2s1.4-3.2,3.2-3.2h0.3C1199.8,859.2,1201.7,857.3,1201.7,855z"/>
		<path class="st26" d="M1220.7,855v-4.6h6.3v4.6c0,2.3,1.9,4.2,4.2,4.2h0.3c1.7,0,3.2,1.4,3.2,3.2s-1.4,3.2-3.2,3.2h-15.3
			c-1.7,0-3.2-1.4-3.2-3.2s1.4-3.2,3.2-3.2h0.3C1218.8,859.2,1220.7,857.3,1220.7,855z"/>
		<path class="st17" d="M1213,724.4h0.8c20.3,1.6,29.1,5.9,39.8,35.1c9,24.8,17,76.9,1.4,73.1c-10.5-2.5-14.7-35.7-16.9-61.3"/>
		<path class="st17" d="M1163.6,826.5c-4.1-14,2.2-48.3,9-67c10.2-28,19.8-33.5,39.8-35.1h0.6"/>
		<path class="st26" d="M1188.3,767.9c-1.7,21.6-4.8,50.1-12.1,60.7"/>
	</g>
	<path class="st7" d="M789,778.6H528.1c-13.8,0-25.1-11.2-25.1-25.1V549.9c0-13.8,11.2-25.1,25.1-25.1H789
		c13.8,0,25.1,11.2,25.1,25.1v203.7C814.1,767.4,802.9,778.6,789,778.6z"/>
	<path class="st7" d="M826.7,525.1H660.3c-17.1,0-30.9-13.9-30.9-30.9V291.9c0-17.1,13.9-30.9,30.9-30.9h166.4
		c17.1,0,30.9,13.9,30.9,30.9v202.3C857.7,511.3,843.8,525.1,826.7,525.1z"/>
	<path class="st7" d="M1237.7,565.5l-217.9,2V607c0,16.8,13.6,30.5,30.5,30.5h166.6c0,0,7.8-21.4,13-36.8
		C1235,585.2,1237.7,565.5,1237.7,565.5z"/>
	<path class="st2" d="M1424.2,619.5h-404.5c-14.5,0-26.3-11.8-26.3-26.3V288c0-15.2,12.3-27.5,27.5-27.5h403.3
		c15.1,0,27.3,12.2,27.3,27.3v304.5C1451.5,607.2,1439.3,619.5,1424.2,619.5z"/>
	<path class="st2" d="M810.5,498.7H632.6c-14.2,0-25.7-11.5-25.7-25.7V227.1c0-14.2,11.5-25.7,25.7-25.7h177.8
		c14.2,0,25.7,11.5,25.7,25.7V473C836.2,487.2,824.7,498.7,810.5,498.7z"/>
	<path class="st2" d="M747,762.5H509.6c-18.3,0-33.2-14.9-33.2-33.2V547.5c0-18.3,14.9-33.2,33.2-33.2H747
		c18.3,0,33.2,14.9,33.2,33.2v181.8C780.2,747.6,765.3,762.5,747,762.5z"/>
	<path class="st27" d="M1004.7,541v49.6c0,16.8,13.6,30.5,30.5,30.5h391.7c15.1,0,27.4-12.3,27.4-27.4V541H1004.7z"/>
	<g>
		<path class="st7" d="M567.1,602.1h-67.7c-5,0-9.1-4.1-9.1-9.1v-53c0-5,4.1-9.1,9.1-9.1h67.7c5,0,9.1,4.1,9.1,9.1v53
			C576.1,598.1,572.1,602.1,567.1,602.1z"/>
		<g>
			<path class="st2" d="M501.1,542.6h-4.4c-0.8,0-1.4-0.6-1.4-1.4v-4.4c0-0.8,0.6-1.4,1.4-1.4h4.4c0.8,0,1.4,0.6,1.4,1.4v4.4
				C502.5,542,501.9,542.6,501.1,542.6z"/>
			<path class="st2" d="M512.5,542.6h-4.4c-0.8,0-1.4-0.6-1.4-1.4v-4.4c0-0.8,0.6-1.4,1.4-1.4h4.4c0.8,0,1.4,0.6,1.4,1.4v4.4
				C513.9,542,513.2,542.6,512.5,542.6z"/>
		</g>
		<path class="st2" d="M566,556.9h-65.2c-1.8,0-3.2-1.4-3.2-3.2l0,0c0-1.8,1.4-3.2,3.2-3.2H566c1.8,0,3.2,1.4,3.2,3.2l0,0
			C569.2,555.4,567.8,556.9,566,556.9z"/>
		<path class="st2" d="M543.6,567.7h-42.9c-1.8,0-3.2-1.4-3.2-3.2l0,0c0-1.8,1.4-3.2,3.2-3.2h42.9c1.8,0,3.2,1.4,3.2,3.2l0,0
			C546.9,566.3,545.4,567.7,543.6,567.7z"/>
		<path class="st28" d="M564.4,556h-65.2c-1.8,0-3.2-1.4-3.2-3.2l0,0c0-1.8,1.4-3.2,3.2-3.2h65.2c1.8,0,3.2,1.4,3.2,3.2l0,0
			C567.7,554.5,566.2,556,564.4,556z"/>
		<path class="st28" d="M542.1,566.8h-42.9c-1.8,0-3.2-1.4-3.2-3.2l0,0c0-1.8,1.4-3.2,3.2-3.2h42.9c1.8,0,3.2,1.4,3.2,3.2l0,0
			C545.3,565.4,543.8,566.8,542.1,566.8z"/>
		<path class="st22" d="M564.9,598.9h-67.7c-5,0-9.1-4.1-9.1-9.1v-53c0-5,4.1-9.1,9.1-9.1h67.7c5,0,9.1,4.1,9.1,9.1v53
			C574,594.9,569.9,598.9,564.9,598.9z"/>
		<path class="st7" d="M569.6,647.3h-72.9c-3.6,0-6.5-2.9-6.5-6.5v-29c0-3.6,2.9-6.5,6.5-6.5h72.9c3.6,0,6.5,2.9,6.5,6.5v29
			C576,644.5,573.1,647.3,569.6,647.3z"/>
		<g>
			<path class="st2" d="M501.1,619.5h-4.4c-0.8,0-1.4-0.6-1.4-1.4v-4.4c0-0.8,0.6-1.4,1.4-1.4h4.4c0.8,0,1.4,0.6,1.4,1.4v4.4
				C502.5,618.9,501.9,619.5,501.1,619.5z"/>
			<path class="st2" d="M512.5,619.5h-4.4c-0.8,0-1.4-0.6-1.4-1.4v-4.4c0-0.8,0.6-1.4,1.4-1.4h4.4c0.8,0,1.4,0.6,1.4,1.4v4.4
				C513.9,618.9,513.2,619.5,512.5,619.5z"/>
		</g>
		<path class="st2" d="M549.5,633.7h-48.7c-1.8,0-3.2-1.4-3.2-3.2l0,0c0-1.8,1.4-3.2,3.2-3.2h48.7c1.8,0,3.2,1.4,3.2,3.2l0,0
			C552.7,632.3,551.3,633.7,549.5,633.7z"/>
		<path class="st28" d="M547.9,632.8h-48.7c-1.8,0-3.2-1.4-3.2-3.2l0,0c0-1.8,1.4-3.2,3.2-3.2h48.7c1.8,0,3.2,1.4,3.2,3.2l0,0
			C551.1,631.4,549.7,632.8,547.9,632.8z"/>
		<path class="st22" d="M568.8,646.6h-75.5c-2.9,0-5.2-2.3-5.2-5.2v-31.5c0-2.9,2.3-5.2,5.2-5.2h75.5c2.9,0,5.2,2.3,5.2,5.2v31.5
			C574,644.3,571.7,646.6,568.8,646.6z"/>
	</g>
	<rect x="584.9" y="514.5" class="st6" width="89.7" height="244.7"/>
	<path class="st23" d="M663.2,756.8h-67.1c-3,0-5.4-2.4-5.4-5.4v-84.9c0-3,2.4-5.4,5.4-5.4h67.1c3,0,5.4,2.4,5.4,5.4v84.9
		C668.7,754.4,666.3,756.8,663.2,756.8z"/>
	<path class="st28" d="M660.7,754.4h-67.1c-3,0-5.4-2.4-5.4-5.4v-85c0-3,2.4-5.4,5.4-5.4h67.1c3,0,5.4,2.4,5.4,5.4v84.9
		C666.2,751.9,663.8,754.4,660.7,754.4z"/>
	<path class="st29" d="M1424.4,618.3h-404.5c-14.5,0-26.3-11.8-26.3-26.3V286.8c0-15.2,12.3-27.5,27.5-27.5h403.3
		c15.1,0,27.3,12.2,27.3,27.3V591C1451.7,606.1,1439.5,618.3,1424.4,618.3z"/>
	<path class="st2" d="M601.6,673.2h-4c-0.7,0-1.2-0.5-1.2-1.2v-4c0-0.7,0.5-1.2,1.2-1.2h4c0.7,0,1.2,0.5,1.2,1.2v4
		C602.8,672.7,602.2,673.2,601.6,673.2z"/>
	<path class="st2" d="M611,673.2h-4c-0.7,0-1.2-0.5-1.2-1.2v-4c0-0.7,0.5-1.2,1.2-1.2h4c0.7,0,1.2,0.5,1.2,1.2v4
		C612.2,672.7,611.6,673.2,611,673.2z"/>
	<path class="st30" d="M754.4,699.7h-67.1c-3,0-5.4-2.4-5.4-5.4v-27.8c0-3,2.4-5.4,5.4-5.4h67.1c3,0,5.4,2.4,5.4,5.4v27.8
		C759.9,697.3,757.5,699.7,754.4,699.7z"/>
	<path class="st28" d="M751.9,695.3h-67.1c-3,0-5.4-2.4-5.4-5.4V664c0-3,2.4-5.4,5.4-5.4h67.1c3,0,5.4,2.4,5.4,5.4v25.9
		C757.4,692.9,755,695.3,751.9,695.3z"/>
	<path class="st2" d="M692.8,673.2h-4c-0.7,0-1.2-0.5-1.2-1.2v-4c0-0.7,0.5-1.2,1.2-1.2h4c0.7,0,1.2,0.5,1.2,1.2v4
		C694,672.7,693.4,673.2,692.8,673.2z"/>
	<path class="st2" d="M702.2,673.2h-4c-0.7,0-1.2-0.5-1.2-1.2v-4c0-0.7,0.5-1.2,1.2-1.2h4c0.7,0,1.2,0.5,1.2,1.2v4
		C703.4,672.7,702.8,673.2,702.2,673.2z"/>
	<path class="st31" d="M754.4,739.4h-67.1c-3,0-5.4-2.4-5.4-5.4v-27.8c0-3,2.4-5.4,5.4-5.4h67.1c3,0,5.4,2.4,5.4,5.4V734
		C759.9,736.9,757.5,739.4,754.4,739.4z"/>
	<path class="st28" d="M751.9,735h-67.1c-3,0-5.4-2.4-5.4-5.4v-25.9c0-3,2.4-5.4,5.4-5.4h67.1c3,0,5.4,2.4,5.4,5.4v25.9
		C757.4,732.5,755,735,751.9,735z"/>
	<path class="st2" d="M692.8,712.9h-4c-0.7,0-1.2-0.5-1.2-1.2v-4c0-0.7,0.5-1.2,1.2-1.2h4c0.7,0,1.2,0.5,1.2,1.2v4
		C694,712.3,693.4,712.9,692.8,712.9z"/>
	<path class="st2" d="M702.2,712.9h-4c-0.7,0-1.2-0.5-1.2-1.2v-4c0-0.7,0.5-1.2,1.2-1.2h4c0.7,0,1.2,0.5,1.2,1.2v4
		C703.4,712.3,702.8,712.9,702.2,712.9z"/>
	<line class="st28" x1="607.3" y1="402.9" x2="830.1" y2="402.9"/>
	<g>
		<g>
			<g>
				<defs>
					<path id="SVGID_17_" d="M830.3,500l-198-1.1c-14,0-25.3-11.3-25.3-25.3V199.5l198.9,0.9c13.5,0.1,24.4,11,24.4,24.5L830.3,500
						L830.3,500z"/>
				</defs>
				<clipPath id="SVGID_18_">
					<use xlink:href="#SVGID_17_"  style="overflow:visible;"/>
				</clipPath>
				<g class="st32">
					<path class="st31" d="M695.1,482.9h-67.8c-5,0-9.1-4.1-9.1-9.1v-53c0-5,4.1-9.1,9.1-9.1H695c5,0,9.1,4.1,9.1,9.1v53
						C704.1,478.8,700.1,482.9,695.1,482.9z"/>
					<g>
						<path class="st2" d="M627.4,423.4H623c-0.8,0-1.4-0.6-1.4-1.4v-4.4c0-0.8,0.6-1.4,1.4-1.4h4.4c0.8,0,1.4,0.6,1.4,1.4v4.4
							C628.8,422.7,628.2,423.4,627.4,423.4z"/>
						<path class="st2" d="M638.7,423.4h-4.4c-0.8,0-1.4-0.6-1.4-1.4v-4.4c0-0.8,0.6-1.4,1.4-1.4h4.4c0.8,0,1.4,0.6,1.4,1.4v4.4
							C640.2,422.7,639.5,423.4,638.7,423.4z"/>
					</g>
					<path class="st2" d="M692.3,437.6h-65.2c-1.8,0-3.2-1.4-3.2-3.2l0,0c0-1.8,1.4-3.2,3.2-3.2h65.2c1.8,0,3.2,1.4,3.2,3.2l0,0
						C695.5,436.1,694.1,437.6,692.3,437.6z"/>
					<path class="st2" d="M669.9,448.5H627c-1.8,0-3.2-1.4-3.2-3.2l0,0c0-1.8,1.4-3.2,3.2-3.2h42.9c1.8,0,3.2,1.4,3.2,3.2l0,0
						C673.2,447,671.7,448.5,669.9,448.5z"/>
					<path class="st28" d="M690.7,436.7h-65.2c-1.8,0-3.2-1.4-3.2-3.2l0,0c0-1.8,1.4-3.2,3.2-3.2h65.2c1.8,0,3.2,1.4,3.2,3.2l0,0
						C694,435.2,692.5,436.7,690.7,436.7z"/>
					<path class="st28" d="M668.4,447.6h-42.9c-1.8,0-3.2-1.4-3.2-3.2l0,0c0-1.8,1.4-3.2,3.2-3.2h42.9c1.8,0,3.2,1.4,3.2,3.2l0,0
						C671.6,446.1,670.1,447.6,668.4,447.6z"/>
					<path class="st28" d="M691.2,479.7h-67.7c-5,0-9.1-4.1-9.1-9.1v-53c0-5,4.1-9.1,9.1-9.1h67.7c5,0,9.1,4.1,9.1,9.1v53
						C700.3,475.6,696.2,479.7,691.2,479.7z"/>
					<g>
						<path class="st2" d="M627.4,500.3H623c-0.8,0-1.4-0.6-1.4-1.4v-4.4c0-0.8,0.6-1.4,1.4-1.4h4.4c0.8,0,1.4,0.6,1.4,1.4v4.4
							C628.8,499.6,628.2,500.3,627.4,500.3z"/>
						<path class="st2" d="M638.7,500.3h-4.4c-0.8,0-1.4-0.6-1.4-1.4v-4.4c0-0.8,0.6-1.4,1.4-1.4h4.4c0.8,0,1.4,0.6,1.4,1.4v4.4
							C640.2,499.6,639.5,500.3,638.7,500.3z"/>
					</g>
					<path class="st2" d="M675.8,514.5h-48.7c-1.8,0-3.2-1.4-3.2-3.2l0,0c0-1.8,1.4-3.2,3.2-3.2h48.7c1.8,0,3.2,1.4,3.2,3.2l0,0
						C679,513,677.6,514.5,675.8,514.5z"/>
					<path class="st28" d="M674.2,513.6h-48.7c-1.8,0-3.2-1.4-3.2-3.2l0,0c0-1.8,1.4-3.2,3.2-3.2h48.7c1.8,0,3.2,1.4,3.2,3.2l0,0
						C677.4,512.1,676,513.6,674.2,513.6z"/>
					<path class="st28" d="M695.1,527.3h-75.5c-2.9,0-5.2-2.3-5.2-5.2v-31.5c0-2.9,2.3-5.2,5.2-5.2h75.5c2.9,0,5.2,2.3,5.2,5.2v31.5
						C700.3,525,698,527.3,695.1,527.3z"/>
				</g>
			</g>
		</g>
		<g>
			<g>
				<defs>
					<path id="SVGID_19_" d="M830.3,500l-198-1.1c-14,0-25.3-11.3-25.3-25.3V199.5l198.9,0.9c13.5,0.1,24.4,11,24.4,24.5L830.3,500
						L830.3,500z"/>
				</defs>
				<clipPath id="SVGID_20_">
					<use xlink:href="#SVGID_19_"  style="overflow:visible;"/>
				</clipPath>
				<g class="st33">
					<path class="st31" d="M876.2,301.4h-74.3c-3.2,0-5.8-2.6-5.8-5.8V236c0-3.2,2.6-5.8,5.8-5.8h74.3c3.2,0,5.8,2.6,5.8,5.8v59.6
						C881.9,298.8,879.3,301.4,876.2,301.4z"/>
					<g>
						<path class="st2" d="M805.2,244.4h-4.4c-0.8,0-1.4-0.6-1.4-1.4v-4.4c0-0.8,0.6-1.4,1.4-1.4h4.4c0.8,0,1.4,0.6,1.4,1.4v4.4
							C806.6,243.7,806,244.4,805.2,244.4z"/>
						<path class="st2" d="M816.5,244.4h-4.4c-0.8,0-1.4-0.6-1.4-1.4v-4.4c0-0.8,0.6-1.4,1.4-1.4h4.4c0.8,0,1.4,0.6,1.4,1.4v4.4
							C818,243.7,817.3,244.4,816.5,244.4z"/>
					</g>
					<path class="st2" d="M870.1,257.8h-65.2c-1.8,0-3.2-1.4-3.2-3.2l0,0c0-1.8,1.4-3.2,3.2-3.2h65.2c1.8,0,3.2,1.4,3.2,3.2l0,0
						C873.3,256.3,871.9,257.8,870.1,257.8z"/>
					<path class="st2" d="M847.7,268.7h-42.9c-1.8,0-3.2-1.4-3.2-3.2l0,0c0-1.8,1.4-3.2,3.2-3.2h42.9c1.8,0,3.2,1.4,3.2,3.2l0,0
						C851,267.2,849.5,268.7,847.7,268.7z"/>
					<path class="st28" d="M868.5,257.5h-65.2c-1.8,0-3.2-1.4-3.2-3.2l0,0c0-1.8,1.4-3.2,3.2-3.2h65.2c1.8,0,3.2,1.4,3.2,3.2l0,0
						C871.8,256.1,870.3,257.5,868.5,257.5z"/>
					<path class="st28" d="M846.1,268.4h-42.8c-1.8,0-3.2-1.4-3.2-3.2l0,0c0-1.8,1.4-3.2,3.2-3.2h42.9c1.8,0,3.2,1.4,3.2,3.2l0,0
						C849.4,267,847.9,268.4,846.1,268.4z"/>
					<path class="st28" d="M868.5,299.6h-67.7c-4.5,0-8.6-4.1-8.6-9.1v-53c0-5,4.1-9.1,9.1-9.1H869c5,0,9.1,4.1,9.1,9.1v53
						C878.1,295.6,874,299.6,868.5,299.6z"/>
				</g>
			</g>
		</g>
		<g>
			<g>
				<defs>
					<path id="SVGID_21_" d="M830.3,500l-198-1.1c-14,0-25.3-11.3-25.3-25.3V199.5l198.9,0.9c13.5,0.1,24.4,11,24.4,24.5L830.3,500
						L830.3,500z"/>
				</defs>
				<clipPath id="SVGID_22_">
					<use xlink:href="#SVGID_21_"  style="overflow:visible;"/>
				</clipPath>
				<g class="st34">
					<path class="st31" d="M694.4,275.3H572.3c-3.2,0-5.8-2.6-5.8-5.8V236c0-3.2,2.6-5.8,5.8-5.8h122.1c4.4,0,8,3.6,8,8v29.1
						C702.4,271.7,698.8,275.3,694.4,275.3z"/>
					<g>
						<path class="st2" d="M575.7,241.7h-4.4c-0.8,0-1.4-0.6-1.4-1.4v-4.4c0-0.8,0.6-1.4,1.4-1.4h4.4c0.8,0,1.4,0.6,1.4,1.4v4.4
							C577.1,241,576.4,241.7,575.7,241.7z"/>
						<path class="st2" d="M587,241.7h-4.4c-0.8,0-1.4-0.6-1.4-1.4v-4.4c0-0.8,0.6-1.4,1.4-1.4h4.4c0.8,0,1.4,0.6,1.4,1.4v4.4
							C588.4,241,587.8,241.7,587,241.7z"/>
					</g>
					<path class="st2" d="M690.6,254.6H575.3c-1.8,0-3.2-1.4-3.2-3.2l0,0c0-1.8,1.4-3.2,3.2-3.2h115.2c1.8,0,3.2,1.4,3.2,3.2l0,0
						C693.8,253.1,692.3,254.6,690.6,254.6z"/>
					<path class="st28" d="M689,254.3H573.8c-1.8,0-3.2-1.4-3.2-3.2l0,0c0-1.8,1.4-3.2,3.2-3.2H689c1.8,0,3.2,1.4,3.2,3.2l0,0
						C692.2,252.9,690.8,254.3,689,254.3z"/>
					<path class="st28" d="M689,273.5H571.3c-4.5,0-8.6-4.1-8.6-9.1v-27c0-5,4.1-9.1,9.1-9.1h117.7c5,0,9.1,4.1,9.1,9.1v27
						C698.5,269.5,694.5,273.5,689,273.5z"/>
				</g>
			</g>
		</g>
	</g>
	<path class="st35" d="M609.6,646.7c-0.1,0.4-1.1,15.5-1.1,15.5l1.3,6.5l3.3,5l0.6-0.4l2.1,1.6l0.3-1.4c0,0,1.1,1.4,1.1,0.9
		s-0.1-2.2-0.1-2.2s1.7,0.2,1.6-1.4c-0.1-1.5-1.6-3.5-1.6-3.5l-0.3-5l0.9-0.6l1.6,2.9l2.1-0.6c0,0-0.5-1.9-0.7-4.3
		s-2.4-12.9-2.4-12.9l24.3-80.2l-16.8-7l-5.8,20.5L609.6,646.7z"/>
	<g>
		<g>
			<g>
				<defs>
					<rect id="SVGID_23_" x="265.4" y="446.6" width="208.5" height="188"/>
				</defs>
				<clipPath id="SVGID_24_">
					<use xlink:href="#SVGID_23_"  style="overflow:visible;"/>
				</clipPath>
				<path class="st36" d="M513.4,643.6c-4.9-13.7-9.9-26.7-12.8-30.7c-6.8-9.6-42-6.9-59.9-7.7c-17.9-0.9-30.4-9.6-32.6-10.9
					c-0.8-0.5-92-71-92-71s1.5-4.5,9-4.4c7.7,0.1,37.7,16.7,37.7,16.7l-32.3-30.8c0,0,2.1-3.5,8.4-2.8c7.8,0.8,41.5,25.6,41.5,25.6
					L355.1,498c0,0,7.3-5.9,20.1,4.5c4.2,3.3,4.5,4.1,10.6,8.1c0,0,5.2-3.3,14.4,1.6c11.8,6.3,46.7,20,46.7,20s18.6-1.9,29.3-2.3
					c39.5-1.3,66.4,27.9,75.8,39.9h-10.1c-15.1,0-27.5,12.2-27.7,27.3L513.4,643.6z"/>
			</g>
		</g>
	</g>
	<line class="st22" x1="370.3" y1="647.5" x2="370.3" y2="301.4"/>
	<path class="st37" d="M469.8,588.9c-4.9-13.7-9.9-26.7-12.8-30.7c-6.8-9.6-42-6.9-59.9-7.7c-17.9-0.9-30.4-9.6-32.6-10.9
		c-0.8-0.5-92-71-92-71s1.5-4.5,9-4.4c7.7,0.1,37.7,16.7,37.7,16.7L286.8,450c0,0,2.1-3.5,8.4-2.8c7.8,0.8,41.5,25.6,41.5,25.6
		l-25.2-29.5c0,0,7.3-5.9,20.1,4.5c4.2,3.3,4.5,4.1,10.6,8.1c0,0,5.2-3.3,14.4,1.6c11.8,6.3,46.7,20,46.7,20s18.6-1.9,29.3-2.3
		c39.5-1.3,66.4,27.9,75.8,39.9h-10.1c-15.1,0-27.5,12.2-27.7,27.3L469.8,588.9z"/>
	<g>
		<path class="st38" d="M769.1,396.9h-53.2c-8,0-14.5-6.5-14.5-14.5v-53.2c0-8,6.5-14.5,14.5-14.5h53.2c8,0,14.5,6.5,14.5,14.5v53.2
			C783.6,390.4,777.1,396.9,769.1,396.9z"/>
		<path class="st39" d="M768.7,396.6h-53.2c-8,0-14.5-6.5-14.5-14.5v-53.2c0-8,6.5-14.5,14.5-14.5h53.2c8,0,14.5,6.5,14.5,14.5v53.2
			C783.2,390.1,776.7,396.6,768.7,396.6z"/>
		<path class="st29" d="M765.7,393.6h-53.2c-8,0-14.5-6.5-14.5-14.5v-53.2c0-8,6.5-14.5,14.5-14.5h53.2c8,0,14.5,6.5,14.5,14.5v53.2
			C780.1,387.1,773.7,393.6,765.7,393.6z"/>
		<path class="st2" d="M735.7,360.3l-13.1-10.4c-1-0.8-2.3-0.6-3.1,0.4l-3.3,4.2c-0.8,1-0.6,2.3,0.4,3.1l14.8,11.7l5.9,4.7
			c1,0.8,2.3,0.6,3.1-0.4l4.7-5.9l23-29.1c0.8-1,0.6-2.3-0.4-3.1l-4.2-3.3c-1-0.8-2.3-0.6-3.1,0.4L738.8,360
			C738,360.9,736.6,361,735.7,360.3z"/>
	</g>
	<path class="st37" d="M822.1,569.8c1.2-1.3,21.4,199.9,27,254.7c0.8,7.6,7.5,13,15.1,12.3l0,0c7.4-0.8,12.8-7.3,12.3-14.7
		l-13.1-170.4L886,706l60.7,79.3c4.3,5.7,12.4,6.9,18.2,2.7l0,0c5.9-4.2,7.3-12.4,3.1-18.4l-57.7-75.3l-40.8-130.9L822.1,569.8z"/>
	<path class="st40" d="M805.6,684.3l5.5-18.5c2.1-6.9,9.3-10.8,16.3-8.8l18.5,5.5c6.9,2.1,10.8,9.3,8.8,16.3l-5.5,18.5
		c-2.1,6.9-9.3,10.8-16.3,8.8l-18.5-5.5C807.4,698.5,803.5,691.2,805.6,684.3"/>
	<path class="st41" d="M815,637.5l22.2-63.8l-18.8-47.2l23.4-7.4l17.5,51.9c1,2.9,0.7,6-0.7,8.6l-32.7,61.2L815,637.5z"/>
	<polygon class="st41" points="785.2,384.1 813,465.4 832.6,460.3 791.9,381.4 	"/>
	<path class="st41" d="M814.1,503c0,0-15.4,11.3-2,40.8c8.1,17.8-0.7,17.8,8.7,32.8l50.3-7.5l-1.4-3.9l3.3-1.7c0,0,1.7-7.5-3.9-11.7
		s-5.3-56.2-29.5-54.5C815.5,499,814.1,503,814.1,503z"/>
	<path class="st42" d="M801.8,470.1c-0.5-0.3-10.9-6.1-1-10.9c0,0,17-10.2,24.8-5.7s18.7,33.1,18.7,33.1s9,17.7-8.2,24.6
		c-17.2,6.9-40.9-4.2-35.9-20.6s5.9-18,5.9-18L801.8,470.1z"/>
	<path class="st37" d="M772.2,369.5l3.9,5.3c0,0,2.8,4.8,4.8,5.5s2.7,3.2,2.9,3.2s7.2-2,7.2-2l-2.7-8.8c0,0-1.4-5-1.6-5
		c-0.2,0-8.2-1.2-8.2-1.2l-4.8-6.7l-1.9,0.5l7.2,14.5L772.2,369.5"/>
	<path class="st37" d="M817.2,636.8l-7.9,15.7l6.9,14.1l1.2-0.3c0,0,1.6-2.3,0.2-4.9c-1.5-2.7-2.8-4.9,0.3-7.7s3.1-8.9,3-9.5
		s2.2-4.8,2.2-4.8L817.2,636.8z"/>
	<path class="st43" d="M825.8,507.7l28.4,67.5l-33.4,65.1l5.4,0.4l34.2-64.4l-1.2-6l12.1-1.8l-1.8-3.8c0,0,6.3-1.9,2.4-9.1
		c-3.8-7.3-4.7-1.7-6.4-12.8s-7.3-42.2-18.7-44C835.5,497,825.8,507.7,825.8,507.7z"/>
	<ellipse class="st44" cx="825.2" cy="494" rx="21.2" ry="18.2"/>
	<path class="st45" d="M865.6,835.3c0-1.7-9.9-221.1-9.9-221.1l11.9-14.7l-8.8,19.7l15,203.2C874.3,828,870.9,833.3,865.6,835.3
		L865.6,835.3z"/>
	<path class="st45" d="M863.7,569.5l39.2,124.2l65.1,88.7c2.7-2.9,2.9-7.2,0.6-10.4l-60-81.5l-38.2-121.9L863.7,569.5z"/>
	<path class="st31" d="M785.7,656.1L748,639.4c-3.9-1.7-5.7-6.4-4-10.3l27.1-61.1c1.7-3.9,6.4-5.7,10.3-4l37.7,16.7
		c3.9,1.7,5.7,6.4,4,10.3L796,652.1C794.3,656.1,789.6,657.8,785.7,656.1z"/>
	<path class="st46" d="M743,551.5l-25.9-39.2c-5.1-9.2-15.3-14.4-25.8-13l-19,0.4c-16.6,2.5-30.3,14.4-35,30.5l-14.1,30.4l24.1,12.2
		c4.1-11.5,8-12.5,8-12.5l4.9,22.6l-1.5,38.9l75.5-1.5l-15.9-49.7L743,551.5z"/>
	<path class="st7" d="M601.7,838.3l47-138.3l16.8-80.1l44.1,0.1l6.7-14.3l14.9,13.3l74.2,209.7c2.1,4,0.1,8.1-3.8,9.2l-11.8,4.3
		c-3.4,1-7.1-0.8-8.4-4.1l-84.3-205.8l-20.4,84.2l-45.1,132c-1.1,3.3-4.8,5.1-8.1,4l-17.9-6.1C602.3,845.3,600.5,841.7,601.7,838.3z
		"/>
	<path class="st35" d="M689.3,466.9c2.1,12.7-3.3,23.1-11.9,24.5c-8.7,1.4-17.3-6.6-19.4-19.3s4.9-19.9,13.6-21.3
		S687.1,454.1,689.3,466.9z"/>
	<path class="st35" d="M796.7,620.6L738.6,582l-15.9-20.7l18.6-13.5l11.7,23.6l47.9,40.7l11.2,4.5l1,7.3c0,0-4.4,6.1-4.6,6
		c-0.2-0.1-2.6-0.8-2.6-0.8l-0.1-1.8C805.8,627.5,800.2,627.4,796.7,620.6z"/>
	<path class="st47" d="M684.9,455.1c2.2,2.5,3.7,5.6,4.2,9.2c0.7,4.5,0.8,9.9-0.2,14.8l-0.6,2.4c-1.6,5.1-4.6,9.1-9.8,9.9
		c-3.9,0.6-7.5-0.4-10.6-2.4"/>
	<path class="st48" d="M652.6,469.4c-6.1-17.2,15.6-20.7,26.3-23c13.5-3.6,7.5,15.8,8.7,26.9c0.3,2.4-1.9-6.6-2-4.1
		c-0.1,13.5-3.4,19.6-13,20.8C663.2,491,656.7,480.9,652.6,469.4z"/>
	<ellipse class="st35" cx="686.6" cy="471.2" rx="1.4" ry="5.9"/>
	<polyline class="st49" points="652.7,556.2 645.7,569.1 621.1,557.4 641.3,513.8 	"/>
	<polyline class="st49" points="719.4,511.5 741.3,547.9 717.7,566.1 712.9,558.9 	"/>
	<path class="st2" d="M879.5,609l83.6-98.2c0,0,8.2-2.8,13.3,6.9s-90.8,95.6-90.8,95.6L879.5,609z"/>
	<polygon class="st2" points="905.3,863.4 953,646.6 979.3,648.2 921.8,863.9 	"/>
	<polygon class="st2" points="990.3,647 1062.5,865.2 1079.8,865.2 1066,834.2 1019.1,645.4 	"/>
	<path class="st50" d="M984.3,500.2c0,0-26.7-0.3-26.7,30.2c0,14.3,0.9,33.6,1.4,43.9c0.2,4-0.3,8.1-1.4,12l-19.5,71l90.8-1.1
		l-22.3-79.1l6.5-38.2C1013,538.9,1017.9,500.9,984.3,500.2z"/>
	
		<ellipse transform="matrix(0.991 -0.1341 0.1341 0.991 -61.5332 138.8268)" class="st2" cx="999.8" cy="526.2" rx="15.1" ry="20.7"/>
	<polygon class="st2" points="993,537 1007.8,509.4 1051.8,554.5 1102.2,593.7 1099.1,599.9 1043.4,568.1 	"/>
	<ellipse class="st51" cx="996.5" cy="473.8" rx="14.3" ry="20.3"/>
	<path class="st52" d="M1006.6,470.5c0,11.2-3.8,22.1-11.7,22.1c-1.6,0-3.1-0.4-4.6-1.1c2.4,2.7,2.9,2.5,6.3,2.5
		c7.9,0,14.3-9.1,14.3-20.3C1010.8,464.9,1006.6,464.1,1006.6,470.5z"/>
	<ellipse transform="matrix(0.9882 -0.153 0.153 0.9882 -56.787 155.4606)" class="st50" cx="981.7" cy="446.7" rx="8.4" ry="7.2"/>
	<path class="st50" d="M985.2,488.9c0,0-13.1-15.7-5.6-28.1s22.7-4.4,23.3-3.8s11.2-1.5,15.7,3.7c3.3,3.8,3.8,13.7-7.9,12.4
		l-0.9-5.2c0,0-7.8,9.4-13.1,7.9C992.4,474.6,996.6,485.7,985.2,488.9z"/>
	<ellipse class="st51" cx="995.4" cy="474.6" rx="4" ry="6.4"/>
	<path class="st51" d="M1098.4,599.9l3.8-6.5c0,0,14.3,3.1,22.2,7.5c0,0,0.7,2.4-2.3,1.2s-5.8-2-5.8-2l2.9,1.8l3.7,3.6
		c0,0-0.3,1.8-2.1,1.6l0.6,0.5c0,0-0.4,1.8-2.7-0.1s-6.2-5.1-6.2-5.1l5.7,6c0,0-0.5,1.1-1.7,0.1c-1.2-0.9-3.7-3.5-3.7-3.5l-2.8-1.4
		C1109.9,603.9,1103.9,606,1098.4,599.9z"/>
	<polyline class="st53" points="883.6,608.6 957.2,534.5 957.6,545 886.2,614.4 883.6,608.6 	"/>
	<path class="st54" d="M1146.2,508c0,0,13.6-32.3,14.6-33c0.7-0.5,5.9-12.7,32.7-12.6c16.9,0.1,29.7,5.7,36.1,21.4l16.5,46.9
		c1.8,4.4-1.4,9.2-6.2,9.2l-57.4-0.3l-16.5-33.3l-15.2,21.3L1146.2,508z"/>
	<g>
		<polygon class="st55" points="1155.8,506.4 1148.3,516.8 1150.8,527.6 1160,514.8 		"/>
		<path class="st55" d="M1246,530.7l-16.5-46.9c-6.4-15.7-19.1-21.3-36.1-21.4c-2,0-4,0.1-5.8,0.2c14.7,1,25.8,7,31.6,21.2
			l16.5,46.9c1.7,4.2-1.1,8.7-5.5,9.2h9.5C1244.6,539.9,1247.8,535.1,1246,530.7z"/>
	</g>
	<polygon class="st54" points="1163,530.7 1192.4,529.3 1201.6,537.8 1194.5,537.9 1192.6,534.5 1164,534.7 	"/>
	<path class="st56" d="M1202,468.1c0,8.6-10.6,15.9-18.9,15.9s-11-7.3-11-15.9s6.7-7.5,15-7.5S1202,459.5,1202,468.1z"/>
	
		<ellipse transform="matrix(0.9971 -7.585918e-02 7.585918e-02 0.9971 -32.1554 91.6376)" class="st35" cx="1190.2" cy="469.1" rx="12.8" ry="8.5"/>
	<path class="st56" d="M1194.8,451.8c-1.3,11.6-8.9,20.3-17,19.4s-13.6-11.1-12.3-22.7s8.6-18.9,16.7-18
		C1190.3,431.4,1196.1,440.2,1194.8,451.8z"/>
	<path class="st35" d="M1183,431.9c-1-0.1-2.4,0.1-3.3,0.2c7.8,1.2,13,9.6,11.7,21c-1.2,10.2-7.2,18.2-14.1,19.3
		c0.1,0,0.3,0.1,0.4,0.1c8.1,0.9,15.7-7.8,17-19.4S1191.1,432.8,1183,431.9z"/>
	<path class="st57" d="M1170.6,433.6c-3.4,2.4-4.8,5.1-5.8,8.3c-1,3,3,8.2,9.9,5.4c9.6-4,7.9-10.9,11.4-6.7c2.7,3.3-3.8,13.3-0.2,14
		c3.6,0.7,3,7.4,6.1,6.4s6.2-15.8,1.5-23.3C1189.1,430.6,1181.3,425.9,1170.6,433.6z"/>
	<ellipse class="st56" cx="1189.2" cy="452.9" rx="2.9" ry="5.3"/>
	<path class="st53" d="M992.5,507.8l54.2,51.8l53.3,36.7l1.5-3l-51.7-40.6l-40.6-41.2C1009.2,511.5,1000.6,501.7,992.5,507.8z"/>
	<path class="st25" d="M693.8,629.6h1.2c13.8,0.3,26.1,8.9,31,21.8l70.4,188.1l5.7-1.6c6.1-1.7,5.1-8.2,2.9-14.1
		c-17.3-46.4-79.7-224.6-81.7-224.6c-2.3,0-35.4,19.7-35.4,19.7L693.8,629.6z"/>
	<path class="st38" d="M677.1,495.9c0,0,19.3-3.1,28.6,13c9.4,16.1,25,44.5,25,44.5l8.5-5.1l-23.4-40.5
		C715.8,507.8,705.7,491.6,677.1,495.9"/>
	<path class="st23" d="M686.5,620.2L686.5,620.2c15.3-16.2,25.1-36.8,28-58.9l-1.3-1.5l18.9,58.6l-13.8-9.6l-5,11.3h-26.8
		L686.5,620.2L686.5,620.2z"/>
	
		<ellipse transform="matrix(0.9937 -0.1119 0.1119 0.9937 -51.5931 78.9691)" class="st58" cx="677.7" cy="499.1" rx="22.2" ry="3.8"/>
	<path class="st25" d="M611,849.3l46.3-132.4l20.6-95.9l15.4,1.4l3.2,9.7l-24,92.3l-40.1,121.8c-1.5,4.3-6.1,6.8-10.6,5.7L611,849.3
		z"/>
	<path class="st45" d="M509.7,516.3c-7-8.8-22.2-25.9-40.9-34c-25.9-11.3-62.4-4.6-62.4-4.6l-2.8,0.2c0,0-5.3,16.6,16.7,17.3
		c21.9,0.7,44.3-21.7,75.8,9.5c5.3,5.3,9.2,9,11.9,11.6H509.7z"/>
	<path class="st45" d="M363.9,461.6c-4.2,4-1.4,9.4,3.4,12.8l11.3,8.4l27.6-4.1l-41.9-17.6L363.9,461.6z"/>
	<path class="st59" d="M863.2,624.4l6.4-9.5l10.5-8.7l4.7,4.1c0,0-0.1,5.7-4,7.9c-3.8,2.2-5.8,7.7-5.8,7.7L863.2,624.4z"/>
	<polygon class="st53" points="915.5,863.4 964.1,656.8 976.3,656.9 921.5,863.8 	"/>
	<circle class="st7" cx="402.7" cy="364.4" r="81.8"/>
	<path class="st53" d="M1010.9,656.6l11-0.2l44.1,177.9c0,0,6.3,25,12.8,25c6.5,0.1,8.3,0.3,8.3,0.3l0.5,3.8h-17.5L1010.9,656.6z"/>
	<g>
		<circle class="st6" cx="381.9" cy="345.7" r="87.2"/>
		<g>
			<g>
				<g>
					<defs>
						<circle id="SVGID_25_" cx="380.4" cy="342.6" r="85.7"/>
					</defs>
					<clipPath id="SVGID_26_">
						<use xlink:href="#SVGID_25_"  style="overflow:visible;"/>
					</clipPath>
					<path class="st60" d="M303.5,440.6H88.9c-21.5,0-39-17.5-39-39V176.4c0-21.5,17.5-39,39-39h214.6c21.5,0,39,17.5,39,39v225.2
						C342.5,423.1,325,440.6,303.5,440.6z"/>
				</g>
			</g>
		</g>
		<circle class="st61" cx="381.4" cy="344.4" r="85.7"/>
		<path class="st62" d="M388.9,321.7l-0.4,23c0,2.2-1.9,3.9-4.1,3.9s-3.9-1.9-3.9-4.1l0.4-23c0-2.2,1.9-3.9,4.1-3.9
			C387.2,317.7,388.9,319.5,388.9,321.7"/>
		<path class="st62" d="M361.6,340.3l23,0.4c2.2,0,3.9,1.9,3.9,4.1s-1.9,3.9-4.1,3.9l-23-0.4c-2.2,0-3.9-1.9-3.9-4.1
			C357.5,342,359.4,340.2,361.6,340.3"/>
		<path class="st17" d="M382.9,256.2c48.1,0.9,86.4,40.6,85.5,88.7s-40.6,86.4-88.7,85.5s-86.4-40.6-85.5-88.7
			S334.8,255.3,382.9,256.2z"/>
		<path class="st17" d="M382.7,267.7c41.8,0.8,75,35.2,74.2,77s-35.2,75-77,74.2s-75-35.2-74.2-77S340.9,266.9,382.7,267.7z"/>
		<path class="st22" d="M386.2,319.9l-0.4,23c0,2.2-1.9,3.9-4.1,3.9s-3.9-1.9-3.9-4.1l0.4-23c0-2.2,1.9-3.9,4.1-3.9
			C384.4,315.9,386.2,317.7,386.2,319.9"/>
		<path class="st22" d="M358.8,338.5l23,0.4c2.2,0,3.9,1.9,3.9,4.1s-1.9,3.9-4.1,3.9l-23-0.4c-2.2,0-3.9-1.9-3.9-4.1
			C354.8,340.2,356.6,338.4,358.8,338.5"/>
		<line class="st63" x1="316.1" y1="342.1" x2="323.4" y2="342.2"/>
		<line class="st22" x1="440.7" y1="342.9" x2="447.9" y2="343"/>
		<line class="st22" x1="382.8" y1="277.8" x2="382.7" y2="285"/>
		<line class="st22" x1="380.6" y1="401.6" x2="380.4" y2="408.8"/>
		<line class="st63" x1="336.1" y1="296.1" x2="341.2" y2="301.3"/>
		<line class="st22" x1="422.8" y1="383.8" x2="427.9" y2="389"/>
		<line class="st22" x1="429.6" y1="296.3" x2="424.3" y2="301.4"/>
		<line class="st63" x1="339.7" y1="383.7" x2="334.5" y2="388.8"/>
	</g>
	<path class="st17" d="M357.9,470.5l-19-14.1c0,0,6.8-6.9,21.7,4.3c3.7,2.8,20.7,12,28.2,14.5c3.4,1.1,13.9,2.9,13.9,2.9"/>
	<path class="st17" d="M373.9,482.6c0,0-45.3-33.2-49.2-35.8c-14-9.3-17-3.5-17-3.5l25,29.5"/>
	<path class="st17" d="M355.3,487.3c0,0-35.7-22.7-39.5-25.4c-32.6-23.3-33.2-12.8-33.2-12.8l32.5,32.7"/>
	<path class="st17" d="M502.4,515.4c0,0-8.5-7.7-11.2-9.9c0,0-23.1-20.9-37.1-25.6c-19.6-6.5-45.7-2.8-45.7-2.8
		c-36.4,6.5-68.1,13-68.1,13s6.5,13.3,16.8,14.9c17.7,2.8,30.8,1,30.8,1s12.1,5.6,23.7,7.3"/>
	<path class="st17" d="M344,495.8c0,0-52.7-26-56.8-28.2c-15.8-8.4-18.6,0-18.6,0s83.3,64,94.1,71.9c17.3,12.5,51.1,13.1,78.3,13.1
		c7.2,0,13.5,4.7,15.6,11.6l17.2,56.4"/>
	<g>
		<path class="st23" d="M270.9,655.1h-92.3c-13.9,0-25.1-11.3-25.1-25.1v-92.3c0-13.9,11.3-25.1,25.1-25.1h92.3
			c13.9,0,25.1,11.3,25.1,25.1V630C296,643.8,284.8,655.1,270.9,655.1z"/>
		<path class="st64" d="M270.2,654.6h-92.3c-13.9,0-25.1-11.3-25.1-25.1v-92.3c0-13.9,11.3-25.1,25.1-25.1h92.3
			c13.9,0,25.1,11.3,25.1,25.1v92.3C295.3,643.3,284.1,654.6,270.2,654.6z"/>
		<path class="st29" d="M264.9,649.4h-92.3c-13.9,0-25.1-11.3-25.1-25.1V532c0-13.9,11.3-25.1,25.1-25.1h92.3
			c13.9,0,25.1,11.3,25.1,25.1v92.3C290.1,638.2,278.8,649.4,264.9,649.4z"/>
		<path class="st2" d="M212.9,591.6l-22.8-18c-1.6-1.3-4-1-5.3,0.6l-5.8,7.3c-1.3,1.6-1,4,0.6,5.3l25.7,20.3l10.3,8.1
			c1.6,1.3,4,1,5.3-0.6l8.1-10.3l39.8-50.5c1.3-1.6,1-4-0.6-5.3l-7.3-5.8c-1.6-1.3-4-1-5.3,0.6L218.2,591
			C216.9,592.6,214.5,592.9,212.9,591.6z"/>
	</g>
	<path class="st23" d="M1100.8,850.7l-8.9-8.9c-1.5-1.5-1.5-3.9,0-5.4s3.9-1.5,5.4,0l8.9,8.9c1.5,1.5,1.5,3.9,0,5.4
		S1102.2,852.2,1100.8,850.7"/>
	<g>
		<path class="st17" d="M1130.3,734.3c-9.8,7.4-30.2,24.2-42.6,44.6c-16,26.2-1,31.3,8,21.8c4-4.2,7.1-8,9.3-10.9"/>
		<g>
			<path class="st7" d="M1174.4,793.5c-11.4,32.3-9.8,59-29.2,63.5c-37.5,8.5-44.6-54.7-33.2-86.9c11.4-32.3,31.3-52.7,51.8-45.4
				C1184.3,731.8,1185.8,761.2,1174.4,793.5"/>
			<path class="st7" d="M1165.8,714.8c-6.1,6.4-16.2,6.7-22.6,0.6c-6.4-6.1-6.7-16.2-0.6-22.6c6.1-6.4,16.2-6.7,22.6-0.6
				C1171.6,698.3,1171.9,708.4,1165.8,714.8"/>
			<path class="st7" d="M1128.5,776.8c-17.6,19.3-36.4,30.8-41.9,25.8s4.3-24.7,22-44c17.6-19.3,36.4-30.8,41.9-25.8
				S1146.1,757.5,1128.5,776.8"/>
			<path class="st7" d="M1190.5,781.9c1.9,26.1-5.6,51.6-13.1,52.2c-7.4,0.5-12-24.2-13.9-50.2c-1.9-26.1,2-52.1,9.4-52.7
				C1180.4,730.7,1188.6,755.9,1190.5,781.9"/>
			<path class="st2" d="M1158.9,746.9c-4.5,10.2-19.3,36.3-31.1,36.3c-11.8,0-13.2-17.3-10.9-28.2c3.2-15.4,12.5-28.1,24.3-28.1
				S1166.3,730.2,1158.9,746.9"/>
			<path class="st2" d="M1164.3,717.6c-3.4,3.5-8.9,3.7-12.5,0.3s-3.7-8.9-0.3-12.5c3.4-3.5,8.9-3.7,12.5-0.3
				S1167.7,714,1164.3,717.6"/>
			<path class="st23" d="M1125.8,685.2L1125.8,685.2c-0.8,1.3-0.5,3,0.7,3.9l12.9,9.9c1.9,1.3,4.5,0.7,5.7-1.2s0.7-4.5-1.2-5.7
				l-14.2-7.8C1128.3,683.5,1126.6,683.9,1125.8,685.2"/>
			<path class="st23" d="M1135.3,864.7h-11.5c-1.9,0-3.5-1.6-3.5-3.5s1.6-3.5,3.5-3.5h11.5c1.9,0,3.5,1.6,3.5,3.5
				C1138.8,863.2,1137.3,864.7,1135.3,864.7"/>
			<path class="st7" d="M1135.3,743.9c-5.8,9.1-10.1,18-12.2,16.7s0.9-9.8,6.7-18.9c5.8-9.1,13.9-17.2,16-15.8
				C1147.8,727.2,1141.1,734.8,1135.3,743.9"/>
			<path class="st25" d="M1190.9,785.1c0,23.5-4.1,45-10.5,45s-1.1-19.8-1.1-43.4c0-23.5-7.9-46.7-1.5-46.7
				C1184.2,740,1190.9,761.5,1190.9,785.1z"/>
			<path class="st25" d="M1104.2,798c-7.2,6-15.1,8.5-17.6,5.5s1.4-10.3,8.6-16.3c4.1-3.4,8.4-5.7,11.8-6.5L1104.2,798z"/>
			<path class="st17" d="M1161.5,819.9c-13.1,19.9-27.8,27.6-42.3,22.9c-19.5-6.3-21.4-44.7-5.7-81.9c15.8-37.3,37.3-41.1,55.5-31.8
				c8.1,4.1,13.7,12.9,14,27.4"/>
			<path class="st17" d="M1181.5,745c9,50.2,3.1,73.5-1.4,81.6c-7.5,13.4-21.4,5.7-17.8-17.9c3.3-21.8,4.6-37.9,4.9-49.9"/>
			<path class="st17" d="M1151.8,717.2c-0.6-0.5-1.1-1.1-1.5-1.7c-2.2-3.7-0.6-8.8,3.7-11.4c3.4-2.1,10.4-0.2,11.8,2.1
				c0.3,0.4,0.5,0.9,0.6,1.4"/>
			<path class="st17" d="M1127,682.8L1127,682.8c1-1.1,2.7-1.3,3.9-0.4l12.9,9.9c2.7,2.4,0.9,5.2,0.3,5.9c-1.5,1.7-4.2,1.9-5.9,0.3
				l-11.3-11.7C1126,685.7,1126,684,1127,682.8z"/>
			<path class="st17" d="M1141,690.2c1.2-1,2.6-1.9,4.1-2.6c8.1-3.5,17.5,0.2,21.1,8.3c4.2,9.7-0.9,17.8-8.3,21.1
				c-8.1,3.5-17.5-0.2-21.1-8.3c-1.7-4-1.7-8.3-0.3-12.1"/>
			<path class="st17" d="M1109.9,841.3l-4.6,4.3c-1.1,1-2.6,1.1-3.5,0.2l-14.1-15.1c-1-1-2.7-1.1-4,0c-1.5,1.2-1.8,3.2-0.8,4.4
				l15.7,16.8l1.1,1.1c1.4,1.5,4.1,1.4,5.9-0.4l1.4-1.3l6.5-6.1L1109.9,841.3z"/>
			<path class="st17" d="M1134.7,854v-5.3h-6.4v4.6c0,2.3-1.9,4.2-4.2,4.2h-0.3c-1.8,0-3.2,1.4-3.2,3.2s1.4,3.2,3.2,3.2h15.4
				c1.8,0,3.2-1.4,3.2-3.2s-1.4-3.2-3.2-3.2h-0.3C1136.6,857.5,1134.7,856.4,1134.7,854z"/>
		</g>
	</g>
	<path class="st49" d="M1193.7,459.5c12.9,0.6,25.7,4.8,30.9,15.2c6.1,12.1,15.9,44.6,19.8,58.3c1,3.4-1.2,6.9-4.8,6.8"/>
	<path class="st49" d="M1152.9,534.7h39.3c1.6,0,2.8,1.1,2.8,2.4l0,0c0,1.3-1.3,2.4-2.8,2.4h-82.4"/>
	<path class="st17" d="M624,754.1H499.2c-14,0-25.4-11.4-25.4-25.4V540.6c0-14,11.4-25.4,25.4-25.4h140.4"/>
	<line class="st65" x1="739.8" y1="754.1" x2="659" y2="754.1"/>
	<path class="st65" d="M777.7,649.4v79.3c0,6.1-2.2,11.7-5.8,16.1"/>
	<path class="st47" d="M722.2,515.2h30.1c14,0,25.4,11.4,25.4,25.4v18.8"/>
	<path class="st17" d="M659,498.9h-26.6c-14,0-25.4-11.4-25.4-25.4V224.9c0-14,11.4-25.4,25.4-25.4h172.7c14,0,25.4,11.4,25.4,25.4
		v235"/>
	<line class="st65" x1="798.7" y1="498.9" x2="705.9" y2="498.9"/>
	<path class="st47" d="M831.9,461.7c-1.8-3.6-5.1-6.7-10.3-8c-2.8-0.7-5.5-0.7-8-0.2"/>
	<path class="st47" d="M800.6,472c-0.1,2.7,0,5.4,0.4,8.1"/>
	<path class="st47" d="M816.3,654.1c2.3-0.7,4.8-0.7,7.3,0.1l18.5,5.5c6.9,2.1,10.8,9.3,8.8,16.3l-5.5,18.5
		c-2.1,6.9-9.3,10.8-16.3,8.8l-18.5-5.5c-6.9-2.1-10.8-9.3-8.8-16.3l5.5-18.5c0.7-2.4,2.1-4.5,3.9-6"/>
	<path class="st47" d="M815.3,637.3c0,0-2.6,6.4-6.4,13.8c2.1,6.6,7.2,16.2,7.2,16.2"/>
	<path class="st47" d="M811,651.3c0,0,0.5,3.3,1.6,8.4c3.2,4.6,4.3,5.2,4.3,5.2c1.8-1.6-1.1-4.8-1.1-4.8c-1.3-2.3-1.2-4.3-1.2-4.3
		s2.3-2.6,3.3-4.3c1.8-3.3,1.4-7.4,1.4-7.4l2.3-3.7"/>
	<path class="st49" d="M807.7,509.9c-3.5,7.7-3.6,18,0.6,30c1.5,4.1,4.2,9.1,6.7,14.4c1.4,3.1-1.2,11.6-0.2,14.8"/>
	<path class="st49" d="M869.5,561.4c-1.2-7-5.8-9.1-7-16c-0.9-5.3-1.9-10.5-3.3-16.8c-3.4-14.9-8.9-24.4-15.9-29.2"/>
	<path class="st47" d="M987.9,442.3c2,3.6,0.3,8.3-3.7,10.5s-8.9,1-10.8-2.6c-2-3.6-0.3-8.3,3.7-10.5
		C981.1,437.5,985.9,438.7,987.9,442.3z"/>
	<path class="st47" d="M1100,594.8c0,0,7.9,0.2,13.6,2.1c7.9,2.6,10.2,4.9,10.2,4.9c0,0.5-1.1,1.1-2.9,0.1s-6.4-2.5-7.9-2.4"/>
	<path class="st47" d="M1113.2,599.3c0,0,2.2,1.4,4.5,3.1c1.1,0.8,1.7,1.8,3.6,3.8c0,0-0.5,1.2-2.5-0.3c-0.1-0.1-0.2-0.1-0.2-0.2"/>
	<path class="st47" d="M1111.4,602.8c0,0,4.2,2.5,6,4.2s2.4,0.5,2.4,0.5c-0.6-0.8-1-1.6-1.4-2.1l-1.9-2l-4.6-2.6"/>
	<path class="st47" d="M1110.8,602.5c0.7,0.5,2.5,2,2.5,2s1.5,1.6,3.3,3.8c0,0-0.6,1.2-2.4-0.5l-1.1-1.2c0,0-3.2-1.6-3.3-1.6
		c-3.8,1.1-8.5-1.3-8.8-1.6c0,0-1.8-0.8-2.8-2.7c-0.3-0.5-0.5-1.1-0.7-1.8"/>
	<path class="st47" d="M880.4,605.5c0,0-6.1,4.5-10.9,8.5c-5.6,6.1-6.5,9.3-6.5,9.3c0.3,0.4,1.5,0.4,2.6-1.3s4.4-5.3,5.7-6"/>
	<path class="st47" d="M871.2,615.8c0,0-1.2,2.3-2.4,4.9c-0.6,1.2-0.6,2.4-1.3,5.1c0,0,1.1,0.8,2-1.4c0-0.1,0.1-0.2,0.1-0.3"/>
	<path class="st47" d="M874.4,618c0,0-2.4,4.2-3.2,6.6c-0.7,2.4-1.9,1.6-1.9,1.6c0.2-1,0.1-1.9,0.2-2.5l0.7-2.7l2.7-4.5"/>
	<path class="st47" d="M874.8,617.4c-0.4,0.8-1.3,3-1.3,3s-0.5,2.2-1,4.9c0,0,1.1,0.7,1.9-1.6l0.4-1.6c0,0,2-2.9,2.1-3
		c1.4-0.3,2.5-0.9,3.4-1.5c1.4-1,2.3-2.5,2.9-4.2c0.3-0.8,0.7-2,1.5-3.3"/>
	<line class="st49" x1="1009.9" y1="544.5" x2="1004.1" y2="578.4"/>
	<line class="st49" x1="946.1" y1="654.5" x2="912.6" y2="840.6"/>
	<path class="st49" d="M990.1,654.8l62,180l6.6,28.5h28.9l-0.5-3.8c0,0-3.6,0.1-8.3-0.3c-4.8-0.4-14.3-24.2-14.7-24l-45.8-180.6"/>
	<line class="st49" x1="925.8" y1="838.3" x2="974.1" y2="654.8"/>
	<path class="st49" d="M1004.2,577.5l23.1,77l-90.5,0.4l19.7-73.8c0.3-1,0.4-2.1,0.3-3.1l-2.4-36c-4.2-30.6,14.3-43,31.7-42.5
		c7.1,0.2,16.2,4.8,21.8,11.9"/>
	<polyline class="st49" points="1005.2,508.3 1048.8,554.4 1100.1,594.6 1096.6,600.9 1042.8,570.4 993.2,531.3 	"/>
	<polyline class="st49" points="962.7,508.6 919.3,558 880.2,605.7 885,609.9 929.4,570.1 954.6,545.2 	"/>
	<path class="st49" d="M925.6,838.5l-5.3,24.8h-26.2l0.5-3.5c0,0,2.2-0.2,7-0.6c3.4-0.3,8-12.7,11.1-19.6"/>
	<polyline class="st49" points="823.6,608.3 820.1,576.3 814.8,569.3 	"/>
	<line class="st49" x1="828.4" y1="654.9" x2="826.2" y2="633.6"/>
	<path class="st49" d="M856.6,614l5.3,81.6L873.7,822c0.7,7.3-4.6,13.8-12,14.6l0,0c-7.4,0.8-14-4.5-14.8-11.9l-13.2-118.2"/>
	<polyline class="st49" points="879.7,606.2 878.5,602.2 866,563.9 869.5,562.5 	"/>
	<path class="st49" d="M932.6,728.6L909.9,698c-1.8-2.4-3.1-5.1-4-7.9l-23.3-74.6"/>
	<path class="st49" d="M940,784.4l4,5.3c4.5,5.9,12.9,7.1,18.9,2.6l0,0c6-4.5,7.3-13,2.8-19l-17-22.8"/>
	<path class="st49" d="M859.3,646l22.2,61.3c0.5,1.5,1.3,2.8,2.2,4l42.3,54.9"/>
	<line class="st49" x1="856.5" y1="570.1" x2="868.6" y2="568.3"/>
	<line class="st49" x1="819.5" y1="575.3" x2="834.1" y2="573.3"/>
	<path class="st49" d="M856.1,836.4c-0.2,11.4-5.1,24.3-16.5,25.3l-2.4,0.1l-0.2,1.9l24.1-0.4c0,0,0,0,0.1,0c3.1-0.1,5.4-3,5.1-6
		l-0.1-1.8l3.3-0.3l4.6-7.9"/>
	<line class="st65" x1="869" y1="833.9" x2="873.9" y2="844.7"/>
	<path class="st49" d="M873.6,847.6c0,0,2.8-3.1-1.5-3.2c-4.4-0.1-7.2,3.8-7.2,3.8l-5.7,7.2l-2-1.7c0,0,0.3,9.6-11.5,9.6"/>
	<path class="st49" d="M854.9,843.1l0.5,3.9c0,0,1.3-13.1,11.4-12.8c3.4,0.1,4.4,4,5.3,6.6c0.6,1.7,1.3,2.9,1.3,2.9"/>
	<path class="st49" d="M983.5,844.1c-3.1,0-6.5-1.4-6.9-7c-1.4-20.6-9.2-30.5-9.2-30.5l-10.6-12.1"/>
	<path class="st49" d="M987.1,813.8c0.1,1.2-1.3-0.1-1.3,0.9c0.2,2.1,2.9,10.2,3.4,12.3c2.3,9.3-0.1,18.2-6.5,17.2l-0.8-0.1
		c-2-0.5-4.4-0.8-4-12.3c0.2-5.4-1.1-13-1.6-18.1l2.7,2"/>
	<path class="st49" d="M967.4,806.7c0,0,2.3-3.5,4.1,1.7c2.9,8.7-0.5,6.5-0.5-6.2c0-3.2-0.9-6.5,4-8.7c0.5-0.2,1.2-0.2,1.7,0.2
		c0.7,0.6-0.7-0.5,1.5,1.2c2.3,1.8,5.6,4.6,7.5,6"/>
	<path class="st49" d="M812.5,526.1l21.9,47.2c0.5,1,0.5,2.1,0.2,3.1l-20.3,60.4l8.2,3.5l34.6-63.7c0.6-1.1,0.7-2.4,0.2-3.6
		l-22.5-55.2"/>
	<polyline class="st49" points="827.5,456.2 818.9,437.1 790.2,381.9 782.1,384.5 803.5,446.6 806.9,455.3 	"/>
	<path class="st49" d="M690.1,620.4L771.8,839c1.1,2.9,4.3,4.5,7.3,3.5l19.6-6.2c3-1,4.6-4.3,3.5-7.3l-77.6-216.1"/>
	<path class="st49" d="M692.6,626.7l-20.5,87.1l-42.6,131.4c-1.1,2.9-4.3,4.5-7.3,3.5l-19.6-6.2c-3-1-4.6-4.3-3.5-7.3L640.6,702
		l16-81.3"/>
	<polyline class="st49" points="652.7,556.2 657.1,579.2 654.8,620.7 710.3,620.1 715.7,605.2 731.1,617.9 712.9,558.7 	"/>
	<polyline class="st47" points="798.9,612.2 811.1,617.6 811.7,623.8 808,629.3 	"/>
	<path class="st47" d="M794.7,620.6l-51.8-33.7c-3.5-2.2-6.5-5.2-8.9-8.6l-11.4-16.4"/>
	<path class="st47" d="M740.1,548.4l12.5,22.2c0.1,0.1,0.1,0.2,0.2,0.3l46.1,41.2"/>
	<path class="st49" d="M641.4,513.8c3.4-5.7,11.1-14.5,26.7-16.9l17-1.8c21-3.3,32.7,13.3,36.5,20"/>
	<path class="st47" d="M608.8,646.7l8.5-57.1c1-6.9,2.6-13.7,4.9-20.2l3.4-10.6"/>
	<path class="st47" d="M642.2,567.4l-7.7,19.9v0.1L618,647.9"/>
	<path class="st49" d="M587.3,863.1c0,0,0.9-3.5,6.1-5.7c3.5-1.5,6.4-4,8.3-7.3l3.8-6.7l16.8,5.3l-2,14.5L587.3,863.1z"/>
	<path class="st49" d="M787.7,863l-4.9-2.5c-1.9-1-3.1-2.9-3.2-5l-0.6-13.1l17.1-5.4l8.3,14c0,0,8.1,7.5,13,8.4
		c5.4,0.9,5.1,4.1,5.1,4.1L787.7,863z"/>
	<path class="st6" d="M805.9,628.5l-9.7,22.2c-1.2,2.8-4.5,4.1-7.4,2.9L744.1,634c-2.8-1.2-4.1-4.5-2.9-7.4l13.7-31.4"/>
	<path class="st47" d="M761.9,579.4l7.9-17.9c1.2-2.8,4.5-4.1,7.4-2.9l44.7,19.6c2.8,1.2,4.1,4.5,2.9,7.4l-14,32.1"/>
	<path class="st47" d="M794.8,620.4c0,0,4.5,8,11.1,8.1"/>
	<path class="st47" d="M607.5,661.6l1.6,8.2l3.7,4.5c0,0,1.6-0.4-0.1-3.2c-0.6-1.1-1.7-2.4-1.7-2.4l-0.8-7.1"/>
	<polyline class="st47" points="607.4,661.7 608.8,649.8 608.8,646.7 	"/>
	<path class="st47" d="M610.6,664.6l1.2,4.9l1.9,3.4l2,2.1c0,0,1.1-0.6,0-2.4c-1-1.6-1.2-2.2-1.2-2.2l-1.1-3.1l-0.5-5.5"/>
	<path class="st47" d="M615.9,673.3l1.1,1.2c0,0,1.1-0.6,0-2.4c-1-1.6-1.2-2.2-1.2-2.2l-1-2.9l-0.4-5.3"/>
	<path class="st47" d="M616,670.4l1.7,1.8c0,0,1.1-0.6,0-2.4c-1-1.6-1.2-2.2-1.2-2.2l-0.6-2.9l-0.3-7.9"/>
	<path class="st47" d="M610.8,660.9c1.2-0.2,5.6-5.5,5.5-9.1"/>
	<path class="st47" d="M615.5,656.6l1.9,3.4c0,0,1,4.4,2.2,4.4c0.3,0,1.1-0.2,1.1-0.2l-0.4-2.2c-0.1-0.4-0.1-0.9-0.2-1.3l-0.2-2.1
		l-1.8-10"/>
	<polyline class="st47" points="778.1,373.4 774.3,365.3 772,360.3 773.1,359.7 781.4,372.2 	"/>
	<polyline class="st47" points="778.2,367.2 780.5,367.4 782.9,371.6 	"/>
	<polyline class="st47" points="779.8,367.3 782.4,367 784.3,370.9 	"/>
	<polyline class="st47" points="782.9,367.7 785.7,368 786.2,370.5 788.4,379.5 789.6,382.1 	"/>
	<path class="st47" d="M777.6,373.7c-0.8-0.9-1.8-1.7-2.4-2.4c-1.9-2.4-4.1-1.8-4.1-1.8s2.9,3.4,3.5,5.1c0.5,1.2,3,4.9,5.9,6.9
		c0.8,0.5,1.5,1.3,1.9,2.2l0.4,0.9"/>
	<path class="st47" d="M815.2,453.2c0,0-9.6,1.9-17.5,6c-6.2,3.2,0.1,14.5,7.1,13.8"/>
	<line class="st49" x1="817.8" y1="625.8" x2="828.4" y2="629.8"/>
	<path class="st47" d="M843.5,488.4c0.4,1.5,0.6,3.1,0.6,4.7c0,11.2-10.3,20.3-23.1,20.3s-23.1-9.1-23.1-20.3c0-1.2,0.1-2.3,0.3-3.5
		"/>
	<line class="st47" x1="843.4" y1="488.3" x2="832.2" y2="462.2"/>
	<line class="st47" x1="803.1" y1="472.6" x2="798.3" y2="489.7"/>
	<path class="st49" d="M866.2,586.4c1.3,6.8,0.1,16.5-10.1,28.5"/>
	<polyline class="st47" points="808.6,621 810,626.2 807.6,629.6 	"/>
	<polyline class="st47" points="809.8,619 811.2,624.1 808.9,627.6 	"/>
	<path class="st47" d="M806.8,623.8c0.2,0.2,2.4,3.5,2.4,3.5l-2.3,3.2l-1.5-0.4"/>
	<path class="st49" d="M1008.7,543.5c-2.1,2.9-4.9,4.7-8.1,5.1c-8.1,0.9-15.7-8.2-17.1-20.3c-1.3-12.1,4.1-22.6,12.2-23.5
		c2.8-0.3,5.5,0.6,7.9,2.3"/>
	<path class="st47" d="M993.8,480.9c-1.6-0.7-2.9-2.7-3.2-5.2c-0.5-3.3,0.9-6.3,3.2-6.6c2.2-0.3,4.4,2.1,4.9,5.5"/>
	<path class="st47" d="M1009.7,471.8c1.8,0.9,6.7,4.6,9.3,0.4c4.3-7-4.8-14.4-12.5-15.3c-1.4-0.2-3.9-1.2-5.1-1.9
		c-2.9-1.6-6.4-2.4-10.1-2c-11.6,1.2-15.6,12.3-14.2,19.8c1.8,9.9,8.6,21.2,18.9,21c5.1-0.1,8.5-3.5,10.6-8.1l0.9-2.2
		c1.6-4.4,2.2-9.6,2.2-14c0-1.2-0.2-2.4-0.4-3.5"/>
	<path class="st47" d="M998.4,474.3c3,0.2,6.8-3.3,9.2-6.4c0.8-1,1.6-1.8,2.6-2.2"/>
	<path class="st47" d="M984.2,488.2c0,0,6.4,0.9,8-5.2c0.2-0.6,0.5-1.4,1.1-2.3"/>
	<line class="st49" x1="967.4" y1="786.1" x2="974.1" y2="792.9"/>
	<path class="st49" d="M986.9,803.6c-0.1-1-0.4-2.1-1.3-2.7c-1.8-1.2-2.2-1.3-4.3-0.5c-4.1,1.6-3.3,7.9-3.3,7.9l0.8,7.3l8.3-1.9
		L986.9,803.6z"/>
	<line class="st47" x1="1021.2" y1="553.8" x2="1008.6" y2="553.8"/>
	<line class="st49" x1="1451.9" y1="540" x2="1034.4" y2="540"/>
	<path class="st47" d="M1168.4,465.3c2.7,4.6,6.6,7.7,11.6,7.3c10.3-0.8,15-13.8,15.5-24.1c0.4-7.9-4.3-18.2-16-18.4
		c-10.4-0.1-17.4,8.4-16.2,18.7c0.5,4.5,1.8,9.8,3.9,14.2L1168.4,465.3z"/>
	<path class="st49" d="M1148.8,539.2h-56.3c-1.8,0-3.5-1.3-3.9-3l-13.5-52.7c-0.7-2.6,1.3-5,3.9-5h56.3c1.8,0,3.5,1.3,3.9,3
		l13.5,52.7C1153.3,536.7,1151.4,539.2,1148.8,539.2z"/>
	<path class="st49" d="M1144.7,503.5l11-26.7c3-7.9,9.4-10.9,12.4-12.5"/>
	<polyline class="st49" points="1151,525.7 1164.2,507 1173.7,527.8 	"/>
	<path class="st49" d="M1207.3,488.2l11.1,29.9c0.7,3-1.5,5.8-4.6,5.9l-54.5,5.3l-7.6,0.2"/>
	
		<ellipse transform="matrix(0.9646 -0.2637 0.2637 0.9646 -94.8278 310.9248)" class="st47" cx="1110.8" cy="508.7" rx="4.4" ry="7.5"/>
	<path class="st49" d="M1193.2,460.4c5.6,0.5,9.9-0.4,9.9,5c0,7.9-10.4,19.5-19.3,19.5s-14.1-6.3-14.6-14.2c-0.1-1.3,0-2.9,0.3-4"/>
	<path class="st47" d="M1190,458.1c0.5,2.6,2,3.7,3.5,0.8"/>
	<path class="st47" d="M1164.2,440.8c0,0-3.4,7.4,5.3,7.3c12.1-0.2,12.3-9.8,16-7.8c2.9,1.6-1.6,7.7-0.6,13.8c0.1,0.6,0.8,1,1.4,0.7
		"/>
	<path class="st47" d="M1186.5,454.3c-0.1-0.6-0.2-1.2-0.2-1.9c0-2.9,1.2-5.3,2.7-5.6c0.3-0.1,0.5,0,0.8,0.1
		c0.8,0.4,2.5,1.8,2.5,5.5c0,2.5-0.8,4.6-2,5.3"/>
	<path class="st47" d="M1169.8,455.5c0,0,0.9,3.7-0.6,4.8c-1.5,1,1.2,2.7,3.7-0.1"/>
	<line class="st28" x1="607.3" y1="306.9" x2="830.1" y2="306.9"/>
	<line class="st28" x1="607.3" y1="222" x2="830.1" y2="222"/>
	<circle class="st6" cx="1420.5" cy="701.6" r="52.7"/>
	<g>
		<g>
			<path class="st2" d="M1127,290.1c10.5,0,19.1,8.6,19.1,19.1v83.2c0,10.5-8.6,19.1-19.1,19.1h-83.2c-10.5,0-19.1-8.6-19.1-19.1
				v-83.2c0-10.5,8.6-19.1,19.1-19.1H1127z"/>
			<path class="st7" d="M1132.2,294.3c10.5,0,19.1,8.6,19.1,19.1v83.2c0,10.5-8.6,19.1-19.1,19.1H1049c-10.5,0-19.1-8.6-19.1-19.1
				v-83.2c0-10.5,8.6-19.1,19.1-19.1L1132.2,294.3L1132.2,294.3z"/>
			<g>
				<path class="st66" d="M1126.2,289.3c10.5,0,19.1,8.6,19.1,19.1v83.2c0,10.5-8.6,19.1-19.1,19.1H1043c-10.5,0-19.1-8.6-19.1-19.1
					v-83.2c0-10.5,8.6-19.1,19.1-19.1L1126.2,289.3L1126.2,289.3z"/>
			</g>
		</g>
		<path class="st67" d="M1113.8,369.6c-3.1-4.4-8.3-9-8.2-20.1c0.4-32.9-17.5-31.6-21-31.6c-3.6,0-21.5-1.3-21,31.6
			c0.1,11-5.1,15.7-8.2,20.1c-0.8,1.2,0,2.8,1.5,2.8h18.1c0,5.3,4.3,9.7,9.7,9.7s9.7-4.3,9.7-9.7h18.1
			C1113.8,372.5,1114.6,370.8,1113.8,369.6z"/>
	</g>
	<g>
		<path class="st2" d="M258.3,433.3H43.7c-21.5,0-39-17.5-39-39V169.1c0-21.5,17.5-39,39-39h214.6c21.5,0,39,17.5,39,39v225.2
			C297.3,415.9,279.8,433.3,258.3,433.3z"/>
		<g>
			<g>
				<g>
					<defs>
						<rect id="SVGID_27_" x="-7.6" y="113.6" width="325.7" height="109.6"/>
					</defs>
					<clipPath id="SVGID_28_">
						<use xlink:href="#SVGID_27_"  style="overflow:visible;"/>
					</clipPath>
					<path class="st68" d="M266.8,441.1H52.2c-21.5,0-39-17.5-39-39V177c0-21.5,17.5-39,39-39h214.6c21.5,0,39,17.5,39,39v225.2
						C305.8,423.7,288.4,441.1,266.8,441.1z"/>
				</g>
			</g>
		</g>
		<path class="st6" d="M76.4,345.7h-23c-5.8,0-10.5-4.7-10.5-10.5v-23c0-5.8,4.7-10.5,10.5-10.5h23c5.8,0,10.5,4.7,10.5,10.5v23
			C86.9,341.1,82.2,345.7,76.4,345.7z"/>
		<path class="st7" d="M76.4,400.4h-23c-5.8,0-10.5-4.7-10.5-10.5v-23c0-5.8,4.7-10.5,10.5-10.5h23c5.8,0,10.5,4.7,10.5,10.5v23
			C86.9,395.7,82.2,400.4,76.4,400.4z"/>
		<path class="st69" d="M255.2,403.7h-23c-5.8,0-10.5-4.7-10.5-10.5v-23c0-5.8,4.7-10.5,10.5-10.5h23c5.8,0,10.5,4.7,10.5,10.5v23
			C265.7,399,261,403.7,255.2,403.7z"/>
		<path class="st17" d="M258.3,433.3H43.7c-21.5,0-39-17.5-39-39V169.1c0-21.5,17.5-39,39-39h214.6c21.5,0,39,17.5,39,39v225.2
			C297.3,415.9,279.8,433.3,258.3,433.3z"/>
		<line class="st17" x1="4.7" y1="216.7" x2="297.3" y2="216.7"/>
		<g>
			<path class="st22" d="M72.6,287.3h-23c-5.8,0-10.5-4.7-10.5-10.5v-23c0-5.8,4.7-10.5,10.5-10.5h23c5.8,0,10.5,4.7,10.5,10.5v23
				C83.1,282.6,78.4,287.3,72.6,287.3z"/>
			<path class="st22" d="M72.6,343.9h-23c-5.8,0-10.5-4.7-10.5-10.5v-23c0-5.8,4.7-10.5,10.5-10.5h23c5.8,0,10.5,4.7,10.5,10.5v23
				C83.1,339.2,78.4,343.9,72.6,343.9z"/>
			<path class="st22" d="M72.6,400.4h-23c-5.8,0-10.5-4.7-10.5-10.5v-23c0-5.8,4.7-10.5,10.5-10.5h23c5.8,0,10.5,4.7,10.5,10.5v23
				C83.1,395.7,78.4,400.4,72.6,400.4z"/>
			<path class="st22" d="M132.4,287.3h-23c-5.8,0-10.5-4.7-10.5-10.5v-23c0-5.8,4.7-10.5,10.5-10.5h23c5.8,0,10.5,4.7,10.5,10.5v23
				C142.9,282.6,138.2,287.3,132.4,287.3z"/>
			<path class="st22" d="M132.4,343.9h-23c-5.8,0-10.5-4.7-10.5-10.5v-23c0-5.8,4.7-10.5,10.5-10.5h23c5.8,0,10.5,4.7,10.5,10.5v23
				C142.9,339.2,138.2,343.9,132.4,343.9z"/>
			<path class="st22" d="M132.4,400.4h-23c-5.8,0-10.5-4.7-10.5-10.5v-23c0-5.8,4.7-10.5,10.5-10.5h23c5.8,0,10.5,4.7,10.5,10.5v23
				C142.9,395.7,138.2,400.4,132.4,400.4z"/>
			<path class="st22" d="M192.2,287.3h-23c-5.8,0-10.5-4.7-10.5-10.5v-23c0-5.8,4.7-10.5,10.5-10.5h23c5.8,0,10.5,4.7,10.5,10.5v23
				C202.6,282.6,197.9,287.3,192.2,287.3z"/>
			<path class="st22" d="M192.2,343.9h-23c-5.8,0-10.5-4.7-10.5-10.5v-23c0-5.8,4.7-10.5,10.5-10.5h23c5.8,0,10.5,4.7,10.5,10.5v23
				C202.6,339.2,197.9,343.9,192.2,343.9z"/>
			<path class="st22" d="M192.2,400.4h-23c-5.8,0-10.5-4.7-10.5-10.5v-23c0-5.8,4.7-10.5,10.5-10.5h23c5.8,0,10.5,4.7,10.5,10.5v23
				C202.6,395.7,197.9,400.4,192.2,400.4z"/>
			<path class="st22" d="M251.9,287.3h-23c-5.8,0-10.5-4.7-10.5-10.5v-23c0-5.8,4.7-10.5,10.5-10.5h23c5.8,0,10.5,4.7,10.5,10.5v23
				C262.4,282.6,257.7,287.3,251.9,287.3z"/>
			<path class="st22" d="M251.9,343.9h-23c-5.8,0-10.5-4.7-10.5-10.5v-23c0-5.8,4.7-10.5,10.5-10.5h23c5.8,0,10.5,4.7,10.5,10.5v23
				C262.4,339.2,257.7,343.9,251.9,343.9z"/>
			<path class="st22" d="M251.9,400.4h-23c-5.8,0-10.5-4.7-10.5-10.5v-23c0-5.8,4.7-10.5,10.5-10.5h23c5.8,0,10.5,4.7,10.5,10.5v23
				C262.4,395.7,257.7,400.4,251.9,400.4z"/>
		</g>
	</g>
</g>
<g id="Layer_16">
</g>
<g id="Busy_people">
</g>
<g id="Pie">
</g>
<g id="_x31_:1_1_">
</g>
<g id="portraits">
</g>
<g id="Calendar_x5F_integration">
</g>
<g id="AWS">
</g>
<g id="Cloudflare">
</g>
<g id="text_x5F_hero">
</g>
<g id="Layer_4">
</g>
<g id="Zapier">
</g>
<g id="Knife">
</g>
<g id="Sync">
</g>
<g id="reviewed">
</g>
<g id="assistant">
</g>
<g id="enterprise">
</g>
<g id="one_spot">
</g>
<g id="busy_people">
</g>
<g id="_x31_:1">
</g>
<g id="Layer_23">
</g>
<g id="Slack_Bot">
</g>
<g id="pen">
</g>
<g id="schedule">
</g>
</svg>
